<svg width="45" height="45" viewBox="0 0 45 45" fill="none" xmlns="http://www.w3.org/2000/svg">
<g clip-path="url(#clip0)">
<path d="M28.2442 5.60708C23.2943 3.10588 17.3317 4.06222 13.4073 7.98672C8.84622 12.5477 8.38971 19.8203 12.3455 24.9034C12.4853 25.0831 12.6943 25.1771 12.9056 25.1771C13.0579 25.1771 13.2112 25.1283 13.3407 25.0275C13.6498 24.787 13.7053 24.3414 13.4649 24.0323C9.94758 19.5128 10.3541 13.0458 14.4103 8.98956C17.9005 5.49924 23.2027 4.64863 27.6047 6.87288C27.9541 7.04972 28.3807 6.90927 28.5574 6.55973C28.734 6.21019 28.5939 5.78365 28.2442 5.60708Z" fill="#ABABAB"/>
<path d="M33.9071 11.2711C33.7304 10.9215 33.3041 10.7812 32.9542 10.9577C32.6047 11.1343 32.4643 11.5607 32.6409 11.9105C34.8636 16.3117 34.0125 21.6133 30.5232 25.1025C26.4668 29.1587 19.9999 29.5651 15.4804 26.048C15.1712 25.8075 14.7258 25.863 14.4852 26.1721C14.2447 26.4812 14.3003 26.9267 14.6094 27.1673C16.9248 28.9692 19.6943 29.8555 22.4551 29.8555C25.7551 29.8555 29.0427 28.5889 31.5262 26.1054C35.4497 22.1819 36.4065 16.2205 33.9071 11.2711Z" fill="#ABABAB"/>
<path d="M32.0748 8.5701C31.8991 8.37129 31.7145 8.17494 31.5262 7.98668C31.3378 7.79833 31.1416 7.61376 30.9428 7.43806C30.6493 7.17861 30.2011 7.20638 29.9419 7.49985C29.6823 7.79323 29.7099 8.24139 30.0034 8.50075C30.1805 8.6572 30.3554 8.82173 30.5233 8.98951C30.691 9.15739 30.8555 9.3322 31.012 9.5093C31.1521 9.66786 31.3474 9.7488 31.5437 9.7488C31.7106 9.7488 31.8781 9.69018 32.013 9.571C32.3066 9.31172 32.3342 8.86357 32.0748 8.5701Z" fill="#ABABAB"/>
<path d="M39.205 18.3173C39.6779 17.5415 39.6779 16.5779 39.2048 15.8022L38.2719 14.2723C38.149 14.0707 38.1014 13.8313 38.1382 13.5982L38.4163 11.8313C38.558 10.9309 38.1881 10.0385 37.4511 9.50232L36.0052 8.45062C35.814 8.31149 35.6781 8.10855 35.6225 7.87881L35.2014 6.13866C34.9877 5.25474 34.3057 4.57288 33.4219 4.35896L31.6816 3.93778C31.4519 3.88215 31.2488 3.74627 31.1098 3.55511L30.0579 2.10886C29.5218 1.37181 28.6294 1.0017 27.7292 1.14356L25.9617 1.42164C25.7286 1.4583 25.4891 1.41083 25.2877 1.28796L23.7575 0.354738C22.9818 -0.11829 22.0181 -0.118202 21.2424 0.354738L19.7124 1.2877C19.511 1.41066 19.2716 1.45794 19.0383 1.42138L17.2713 1.14329C16.3712 1.00161 15.4786 1.37155 14.9425 2.1086L13.8908 3.55449C13.7517 3.74565 13.5486 3.88153 13.3188 3.93717L11.5786 4.35825C10.6949 4.572 10.0129 5.25395 9.79894 6.13778L9.37777 7.87801C9.32213 8.10776 9.18634 8.31088 8.99509 8.44983L7.54885 9.50171C6.8118 10.0378 6.44195 10.93 6.58355 11.8305L6.86163 13.598C6.89828 13.8312 6.85082 14.0706 6.72795 14.2721L5.79481 15.8023C5.32196 16.5781 5.32196 17.5417 5.7949 18.3173L6.72786 19.8473C6.85073 20.049 6.89828 20.2884 6.86154 20.5215L6.58346 22.2884C6.44169 23.1888 6.81162 24.0812 7.54868 24.6173L8.99457 25.669C9.18573 25.808 9.32161 26.0111 9.37724 26.2409L9.79833 27.981C10.0121 28.8649 10.694 29.5468 11.5779 29.7607L12.3045 29.9366L7.38669 40.9066C7.28219 41.1398 7.31111 41.411 7.46254 41.6168C7.61389 41.8227 7.86411 41.9312 8.11794 41.9008L12.075 41.4277L14.3545 44.6964C14.4879 44.8876 14.7056 44.9999 14.936 44.9999C14.958 44.9999 14.9804 44.9989 15.0025 44.9968C15.2569 44.9729 15.4788 44.8139 15.5833 44.5809L20.6058 33.3767L21.2422 33.7648C21.6301 34.0013 22.0649 34.1195 22.4998 34.1195C22.9347 34.1195 23.3695 34.0012 23.7573 33.7648L24.4167 33.3627L29.4455 44.5809C29.55 44.8141 29.7719 44.9729 30.0263 44.9968C30.0485 44.999 30.0708 45 30.0928 45C30.3232 45 30.541 44.8877 30.6743 44.6965L32.9539 41.4278L36.9109 41.9009C37.1645 41.931 37.4149 41.8228 37.5663 41.6169C37.7176 41.4111 37.7467 41.1398 37.6421 40.9067L32.7217 29.9306L33.4211 29.7614C34.3048 29.5477 34.9869 28.8657 35.2008 27.9819L35.622 26.2417C35.6776 26.0119 35.8135 25.8088 36.0046 25.6698L37.4509 24.618C38.1879 24.0819 38.5578 23.1896 38.4162 22.2892L38.1381 20.5216C38.1014 20.2885 38.1489 20.049 38.2718 19.8476L39.205 18.3173ZM14.8014 42.8579L12.9949 40.2674C12.8452 40.0526 12.589 39.9377 12.3291 39.969L9.1932 40.3439L13.6738 30.3487C13.7557 30.4089 13.8292 30.4811 13.8897 30.5645L14.9416 32.0107C15.0415 32.1481 15.1539 32.2726 15.2763 32.3835L12.9179 37.6444C12.7578 38.0019 12.9176 38.4214 13.2749 38.5816C13.3692 38.6239 13.4677 38.6438 13.5645 38.6438C13.8354 38.6438 14.0942 38.4877 14.212 38.2246L16.5621 32.9824C16.7933 33.0142 17.0314 33.0136 17.2704 32.976L19.0378 32.6979C19.1437 32.6813 19.2506 32.6828 19.3548 32.7L14.8014 42.8579ZM35.8358 40.3437L32.6999 39.969C32.4396 39.9378 32.1838 40.0526 32.034 40.2674L30.2275 42.8579L25.6722 32.6961C25.7677 32.6831 25.8652 32.6831 25.9616 32.6982L27.7285 32.9763C27.9771 33.0154 28.2249 33.0142 28.4649 32.9784L30.8167 38.2248C30.9347 38.488 31.1933 38.644 31.4642 38.644C31.5611 38.644 31.6597 38.6241 31.7538 38.5818C32.1112 38.4216 32.271 38.002 32.1108 37.6446L29.7435 32.3637C29.8576 32.2577 29.9632 32.1404 30.0573 32.011L31.109 30.5651C31.1753 30.4739 31.2565 30.3958 31.3477 30.3326L35.8358 40.3437ZM37.994 17.5789L37.0608 19.1091C36.7633 19.5973 36.6482 20.1772 36.737 20.742L37.0151 22.5095C37.0736 22.8811 36.9208 23.2495 36.6166 23.4708L35.1703 24.5228C34.7074 24.8596 34.3781 25.3515 34.2435 25.9079L33.8223 27.6482C33.734 28.013 33.4526 28.2945 33.0876 28.3829L31.3474 28.8039C30.7909 28.9386 30.2989 29.2678 29.9621 29.7308L28.9104 31.1767C28.689 31.4811 28.3208 31.6337 27.9489 31.5751L26.182 31.297C25.6171 31.2082 25.0371 31.3231 24.5489 31.6208L23.0189 32.5538C22.6988 32.7489 22.3008 32.7489 21.9808 32.5538L20.4505 31.6207C20.07 31.3886 19.6337 31.2677 19.1922 31.2677C19.0674 31.2677 18.942 31.2774 18.8176 31.297L17.05 31.575C16.6782 31.6336 16.31 31.4807 16.0887 31.1765L15.0367 29.7303C14.6999 29.2674 14.208 28.9381 13.6515 28.8035L11.9113 28.3823C11.5465 28.294 11.265 28.0126 11.1766 27.6476L10.7555 25.9075C10.6209 25.351 10.2917 24.8589 9.82865 24.5221L8.38285 23.4703C8.07857 23.249 7.9259 22.8805 7.98444 22.5088L8.26252 20.7419C8.35138 20.177 8.23642 19.5971 7.93873 19.1089L7.00577 17.5788C6.81057 17.2586 6.81057 16.8607 7.00577 16.5406L7.93891 15.0104C8.23651 14.5222 8.35156 13.9423 8.2627 13.3775L7.98461 11.61C7.92617 11.2383 8.07892 10.87 8.38311 10.6487L9.82944 9.59672C10.2924 9.25992 10.6216 8.768 10.7562 8.21156L11.1774 6.47132C11.2658 6.10649 11.5472 5.82497 11.9121 5.73664L13.6523 5.31556C14.2089 5.18091 14.7009 4.85167 15.0376 4.38866L16.0893 2.94277C16.3106 2.63849 16.6789 2.48565 17.0507 2.54427L18.8177 2.82236C19.3826 2.91139 19.9626 2.79626 20.4508 2.49857L21.9807 1.56561C22.3009 1.37049 22.6989 1.37049 23.0189 1.56561L24.5491 2.49866C25.0373 2.79643 25.6174 2.91148 26.1821 2.82254L27.9496 2.54445C28.3212 2.48618 28.6897 2.63876 28.911 2.94295L29.9629 4.38919C30.2997 4.85211 30.7917 5.18135 31.3481 5.316L33.0883 5.73717C33.4532 5.8255 33.7347 6.10693 33.823 6.47185L34.2441 8.212C34.3787 8.76852 34.7079 9.26062 35.171 9.59742L36.6169 10.6491C36.9212 10.8704 37.0738 11.2389 37.0153 11.6106L36.7372 13.3775C36.6483 13.9424 36.7633 14.5223 37.061 15.0105L37.994 16.5406C38.1893 16.8608 38.1893 17.2587 37.994 17.5789Z" fill="#ABABAB"/>
<path d="M30.7984 14.8533C30.6421 14.3722 30.233 14.0363 29.7306 13.9767L25.4634 13.4707L23.6636 9.5688C23.4517 9.10948 23.0058 8.8241 22.4999 8.8241C21.9941 8.8241 21.5482 9.10948 21.3363 9.5688L19.5364 13.4708L15.2692 13.9768C14.7669 14.0364 14.3576 14.3723 14.2015 14.8534C14.0452 15.3343 14.1788 15.8466 14.55 16.19L17.7049 19.1075L16.8674 23.3222C16.7689 23.8184 16.9619 24.3113 17.3712 24.6086C17.597 24.7726 17.859 24.8556 18.1227 24.8556C18.3371 24.8556 18.5524 24.8008 18.7502 24.6901L22.4998 22.5913L26.2494 24.6901C26.6909 24.9372 27.2192 24.906 27.6285 24.6087C28.0378 24.3113 28.2309 23.8184 28.1322 23.3222L27.2948 19.1076L30.4497 16.19C30.8211 15.8467 30.9547 15.3344 30.7984 14.8533ZM26.0405 18.3358C25.8595 18.5032 25.7784 18.7528 25.8264 18.9946L26.6834 23.3075L22.8462 21.1597C22.7386 21.0995 22.6193 21.0694 22.4998 21.0694C22.3804 21.0694 22.2611 21.0995 22.1535 21.1597L18.3163 23.3075L19.1733 18.9946C19.2214 18.7527 19.1403 18.5032 18.9592 18.3358L15.7308 15.3502L20.0977 14.8324C20.3426 14.8034 20.5548 14.6491 20.6582 14.4253L22.4999 10.4323L24.3417 14.4253C24.445 14.6491 24.6572 14.8034 24.9022 14.8324L29.2689 15.3502L26.0405 18.3358Z" fill="#ABABAB"/>
</g>
<defs>
<clipPath id="clip0">
<rect width="45" height="45" fill="white"/>
</clipPath>
</defs>
</svg>
