<svg width="40" height="40" viewBox="0 0 40 40" fill="none" xmlns="http://www.w3.org/2000/svg">
<path d="M31.7241 23.4482C27.1607 23.4482 23.4482 27.1607 23.4482 31.7241C23.4482 36.2876 27.1607 40 31.7241 40C36.2876 40 40 36.2876 40 31.7241C40 27.1607 36.2876 23.4482 31.7241 23.4482ZM31.7241 38.6207C27.9213 38.6207 24.8276 35.5269 24.8276 31.7241C24.8276 27.9213 27.9213 24.8276 31.7241 24.8276C35.5269 24.8276 38.6207 27.9213 38.6207 31.7241C38.6207 35.5269 35.5269 38.6207 31.7241 38.6207Z" fill="#C4C4C4"/>
<path d="M35.862 31.0345H32.4137V27.5863C32.4137 27.2049 32.1055 26.8966 31.7241 26.8966C31.3427 26.8966 31.0344 27.2049 31.0344 27.5863V31.7242C31.0344 32.1056 31.3427 32.4138 31.7241 32.4138H35.862C36.2434 32.4138 36.5517 32.1056 36.5517 31.7242C36.5517 31.3428 36.2434 31.0345 35.862 31.0345Z" fill="#C4C4C4"/>
<path d="M18.6207 14.4828H17.2414H12.4138H11.0345H4.82764V20.6897V22.069V26.8966V28.2759V34.4828H11.0345H12.4138H18.6207V28.2759V26.8966V22.069H23.4483H24.8276H31.0345V14.4828H24.8276H23.4483H18.6207ZM24.8276 15.8621H29.6552V20.6897H24.8276V15.8621ZM12.4138 15.8621H17.2414V20.6897H12.4138V15.8621ZM6.20695 15.8621H11.0345V20.6897H6.20695V15.8621ZM6.20695 22.069H11.0345V26.8966H6.20695V22.069ZM11.0345 33.1035H6.20695V28.2759H11.0345V33.1035ZM17.2414 33.1035H12.4138V28.2759H17.2414V33.1035ZM17.2414 26.8966H12.4138V22.069H17.2414V26.8966ZM23.4483 20.6897H18.6207V15.8621H23.4483V20.6897Z" fill="#C4C4C4"/>
<path d="M22.7586 37.931H1.37931V11.0345H34.4828V20C34.4828 20.3814 34.791 20.6897 35.1724 20.6897C35.5538 20.6897 35.8621 20.3814 35.8621 20V10.3448V3.44828C35.8621 3.0669 35.5538 2.75862 35.1724 2.75862H31.7241V0.689655C31.7241 0.308276 31.4159 0 31.0345 0H26.2069C25.8255 0 25.5172 0.308276 25.5172 0.689655V2.75862H10.3448V0.689655C10.3448 0.308276 10.0366 0 9.65517 0H4.82759C4.44621 0 4.13793 0.308276 4.13793 0.689655V2.75862H0.689655C0.308276 2.75862 0 3.0669 0 3.44828V10.3448V38.6207C0 39.0021 0.308276 39.3103 0.689655 39.3103H22.7586C23.14 39.3103 23.4483 39.0021 23.4483 38.6207C23.4483 38.2393 23.14 37.931 22.7586 37.931ZM26.8966 1.37931H30.3448V3.44828V5.51724H26.8966V3.44828V1.37931ZM5.51724 1.37931H8.96552V3.44828V5.51724H5.51724V3.44828V1.37931ZM1.37931 4.13793H4.13793V6.2069C4.13793 6.58828 4.44621 6.89655 4.82759 6.89655H9.65517C10.0366 6.89655 10.3448 6.58828 10.3448 6.2069V4.13793H25.5172V6.2069C25.5172 6.58828 25.8255 6.89655 26.2069 6.89655H31.0345C31.4159 6.89655 31.7241 6.58828 31.7241 6.2069V4.13793H34.4828V9.65517H1.37931V4.13793Z" fill="#C4C4C4"/>
</svg>
