<svg width="40" height="49" viewBox="0 0 40 49" fill="none" xmlns="http://www.w3.org/2000/svg">
<path d="M39.8246 41.9882L34.7539 35.4692C36.3969 34.9782 37.8163 33.9274 38.7654 32.4992C39.9596 30.4351 39.4196 27.916 38.8971 25.4827C38.5812 24.2328 38.3921 22.9541 38.3329 21.6662C38.3919 20.3771 38.5808 19.0973 38.8971 17.8463C39.4162 15.4113 39.9596 12.8939 38.7654 10.8331C37.5288 8.69646 35.0388 7.90565 32.6306 7.14233C31.4317 6.81203 30.2707 6.35735 29.1665 5.7857C28.1644 5.13571 27.234 4.38157 26.3907 3.53575C24.6041 1.87746 22.5783 0 20 0C17.4218 0 15.396 1.87746 13.6085 3.53492C12.7655 4.38094 11.8353 5.1354 10.8336 5.7857C9.72943 6.35621 8.56873 6.80974 7.37032 7.139C4.96204 7.90232 2.4721 8.69313 1.23546 10.8297C0.0413241 12.8939 0.581312 15.413 1.1038 17.8463C1.41973 19.0974 1.60848 20.3771 1.66712 21.6662C1.60816 22.9552 1.41921 24.2351 1.10297 25.4861C0.583812 27.921 0.0404909 30.4385 1.23463 32.4992C2.18502 33.928 3.60593 34.9785 5.25037 35.4683L0.175488 41.9874C-0.107006 42.3507 -0.0414866 42.8742 0.321943 43.1567C0.496522 43.2924 0.717767 43.3532 0.937137 43.3257L6.89533 42.5815L8.36613 47.7281C8.45227 48.0297 8.7006 48.2574 9.00862 48.3172C9.0608 48.3271 9.11382 48.3322 9.16695 48.3322C9.42423 48.3324 9.66725 48.2137 9.82526 48.0106L15.1468 41.1657C16.4564 42.4406 18.1765 43.2086 20 43.3323C21.8235 43.2086 23.5437 42.4406 24.8532 41.1657L30.1748 48.0081C30.3323 48.2121 30.5753 48.3318 30.8331 48.3322C30.8862 48.3322 30.9393 48.3271 30.9914 48.3172C31.2995 48.2574 31.5478 48.0297 31.6339 47.7281L33.1047 42.5823L39.0629 43.3265C39.5196 43.3838 39.9362 43.06 39.9935 42.6034C40.021 42.384 39.9603 42.1628 39.8246 41.9882ZM9.51694 45.6914L8.30113 41.4365C8.18812 41.0419 7.80437 40.7883 7.39699 40.8391L2.73043 41.4224L6.91283 36.0458L7.37365 36.1933C8.57092 36.5228 9.73047 36.9763 10.8336 37.5466C11.8356 38.1966 12.766 38.9508 13.6093 39.7966L13.896 40.0616L9.51694 45.6914ZM20 41.6657C18.0751 41.6657 16.4559 40.1657 14.741 38.5758C13.808 37.6436 12.7774 36.8148 11.6669 36.1033C10.4587 35.4708 9.18684 34.968 7.87281 34.6034C5.67036 33.9042 3.58958 33.2442 2.67626 31.6659C1.80462 30.1585 2.25461 28.0577 2.7321 25.8327C3.07573 24.4683 3.2774 23.0721 3.33375 21.6662C3.27771 20.2603 3.07636 18.864 2.73293 17.4996C2.25544 15.2755 1.80545 13.1747 2.6771 11.6664C3.59374 10.0881 5.67119 9.42811 7.87364 8.72896C9.18747 8.36418 10.4589 7.86138 11.6669 7.229C12.7771 6.51756 13.8075 5.68862 14.7401 4.75656C16.4559 3.16659 18.0751 1.66663 20 1.66663C21.925 1.66663 23.5441 3.16659 25.2591 4.75656C26.1921 5.68872 27.2227 6.51756 28.3332 7.229C29.5414 7.86148 30.8132 8.36429 32.1272 8.72896C34.3297 9.42811 36.4105 10.0881 37.3238 11.6664C38.1954 13.1739 37.7454 15.2746 37.268 17.4996C36.9243 18.864 36.7227 20.2603 36.6663 21.6662C36.7223 23.0721 36.9237 24.4683 37.2671 25.8327C37.7446 28.0568 38.1946 30.1576 37.323 31.6659C36.4063 33.2442 34.3289 33.9042 32.1264 34.6034C30.8126 34.9681 29.5412 35.4709 28.3332 36.1033C27.223 36.8148 26.1926 37.6437 25.2599 38.5758C23.5441 40.1657 21.925 41.6657 20 41.6657ZM32.6072 40.8391C32.1999 40.7883 31.8161 41.0419 31.7031 41.4365L30.4831 45.6914L26.1049 40.0624L26.3915 39.7974C27.2345 38.9514 28.1647 38.1969 29.1665 37.5466C30.2706 36.9761 31.4313 36.5226 32.6297 36.1933L33.0906 36.0458L37.2738 41.4224L32.6072 40.8391Z" fill="#C4C4C4"/>
<path d="M20 6.6665C11.7159 6.6665 5.00037 13.3821 5.00037 21.6662C5.00037 29.9502 11.7159 36.6658 20 36.6658C28.2841 36.6658 34.9997 29.9502 34.9997 21.6662C34.9901 13.386 28.2801 6.67619 20 6.6665ZM20 34.9992C12.6364 34.9992 6.66699 29.0297 6.66699 21.6662C6.66699 14.3026 12.6364 8.33313 20 8.33313C27.3636 8.33313 33.333 14.3026 33.333 21.6662C33.3243 29.0262 27.3601 34.9904 20 34.9992Z" fill="#C4C4C4"/>
<path d="M29.6148 18.1854C29.3013 17.7547 28.8009 17.4998 28.2682 17.4996H23.1666L21.5834 12.6439C21.296 11.7694 20.3541 11.2936 19.4797 11.581C18.9766 11.7463 18.5821 12.1409 18.4168 12.6439L16.8376 17.4996H11.7319C10.8114 17.4992 10.0649 18.2449 10.0645 19.1654C10.0641 19.6987 10.3191 20.1998 10.7503 20.5137L14.8802 23.5136L13.3027 28.3693C13.0181 29.2447 13.4972 30.185 14.3725 30.4695C14.8801 30.6345 15.4359 30.5464 15.8677 30.2326L20.0001 27.2335L24.1308 30.2334C24.7127 30.6657 25.5089 30.6657 26.0907 30.2334C26.6813 29.8138 26.9271 29.0567 26.6957 28.3702L25.1183 23.5136L29.2482 20.5137C29.9924 19.972 30.1566 18.9295 29.6148 18.1854ZM23.6483 22.522C23.356 22.7344 23.2338 23.1109 23.3458 23.4544L25.1108 28.886L20.49 25.5294C20.1981 25.3174 19.8029 25.3174 19.5109 25.5294L14.8902 28.886L16.6543 23.4544C16.7659 23.1111 16.6438 22.7351 16.3518 22.5228L11.7319 19.1662H17.4426C17.8036 19.1662 18.1235 18.9337 18.2351 18.5904L20.0001 13.1588L21.765 18.5896C21.8766 18.9329 22.1965 19.1654 22.5575 19.1654L28.2682 19.1662L23.6483 22.522Z" fill="#C4C4C4"/>
</svg>
