<svg width="43" height="43" viewBox="0 0 43 43" fill="none" xmlns="http://www.w3.org/2000/svg">
<mask id="path-1-inside-1" fill="white">
<path d="M39.0117 4.60274H38.4668V2.73802C38.4668 1.22827 37.2385 0 35.7285 0H31.8422C31.4895 0 31.2035 0.286072 31.2035 0.638741C31.2035 0.991409 31.4895 1.27715 31.8422 1.27715H35.7285C36.5342 1.27715 37.1897 1.93262 37.1897 2.73802V11.0977L32.9918 4.77956C32.6404 4.25204 32.0525 3.93677 31.4187 3.93677C30.7845 3.93677 30.1963 4.25204 29.845 4.78022L25.9561 10.6339L24.4066 8.30199C24.0559 7.77413 23.4677 7.45886 22.8336 7.45886C22.1994 7.45886 21.6112 7.77413 21.2605 8.30231L18.3263 12.7181V2.73802C18.3263 1.93262 18.9818 1.27715 19.7872 1.27715H29.2876C29.6403 1.27715 29.9263 0.991409 29.9263 0.638741C29.9263 0.286072 29.6403 0 29.2876 0H19.7872C18.2774 0 17.0492 1.22827 17.0492 2.73802V4.60274H3.98762C1.78893 4.60274 0 6.39167 0 8.59035V31.4535C0 33.6525 1.78893 35.4411 3.98762 35.4411H15.1749L13.5205 38.581H12.6705C11.6627 38.581 10.8425 39.4011 10.8425 40.409C10.8425 41.4168 11.6627 42.2369 12.6705 42.2369H13.4877C13.8404 42.2369 14.1264 41.9509 14.1264 41.5982C14.1264 41.2455 13.8404 40.9598 13.4877 40.9598H12.6705C12.367 40.9598 12.12 40.7127 12.12 40.409C12.12 40.1055 12.367 39.8585 12.6705 39.8585H30.3292C30.6326 39.8585 30.8797 40.1055 30.8797 40.409C30.8797 40.7127 30.6326 40.9598 30.3292 40.9598H16.042C15.6893 40.9598 15.4036 41.2455 15.4036 41.5982C15.4036 41.9509 15.6893 42.2369 16.042 42.2369H30.3292C31.337 42.2369 32.1572 41.4168 32.1572 40.409C32.1572 39.4011 31.337 38.581 30.3292 38.581H29.4792L27.8247 35.4411H39.0117C41.2107 35.4411 43 33.6525 43 31.4535V8.59035C43 6.39167 41.2107 4.60274 39.0117 4.60274ZM14.9643 38.581L16.6187 35.4411H26.3813L28.0354 38.581H14.9643ZM21.2677 30.343C21.2677 30.9578 20.7678 31.4581 20.1526 31.4581H7.93324C7.31812 31.4581 6.81815 30.9578 6.81815 30.343V20.5138C6.81815 19.8987 7.31812 19.3988 7.93324 19.3988H20.1526C20.7678 19.3988 21.2677 19.8987 21.2677 20.5138V30.343ZM20.1526 18.1213H7.93324C6.6141 18.1213 5.54067 19.1947 5.54067 20.5138V28.8686H5.50065C4.3475 28.8686 3.40924 27.9307 3.40924 26.7782V10.3691C3.40924 9.21597 4.3475 8.27804 5.50065 8.27804H17.0492V13.4657C17.0492 14.9755 18.2774 16.2037 19.7872 16.2037H35.7285C37.2385 16.2037 38.4668 14.9755 38.4668 13.4657V8.51523C39.1387 8.86626 39.5898 9.56995 39.5898 10.3691V26.7779C39.5898 27.9307 38.6522 28.8683 37.4994 28.8683H22.5452V20.5135C22.5452 19.1947 21.4718 18.1213 20.1526 18.1213ZM30.9085 5.4872C31.024 5.31365 31.21 5.21392 31.4184 5.21392C31.627 5.21392 31.8127 5.31365 31.9282 5.48687L37.1897 13.406V13.4657C37.1897 14.2714 36.5342 14.9266 35.7285 14.9266H28.808L26.7225 11.788L30.9085 5.4872ZM22.3241 9.00896C22.4396 8.83542 22.6249 8.73602 22.8336 8.73602C23.0419 8.73602 23.2276 8.83542 23.3427 9.00896L27.2746 14.9266H19.7872C19.3604 14.9266 18.9772 14.7416 18.7098 14.4489L22.3241 9.00896ZM41.7228 31.4535C41.7228 32.9481 40.5067 34.1639 39.0117 34.1639H3.98762C2.49296 34.1639 1.27715 32.9481 1.27715 31.4535V8.59035C1.27715 7.09602 2.49296 5.88022 3.98762 5.88022H17.0492V7.00056H5.50065C3.64315 7.00056 2.13209 8.51195 2.13209 10.3691V26.7782C2.13209 28.6351 3.64315 30.1458 5.50065 30.1458H5.541V30.343C5.541 31.6621 6.6141 32.7352 7.93324 32.7352H20.153C21.4721 32.7352 22.5452 31.6621 22.5452 30.343V30.1458H37.4994C39.3562 30.1458 40.8669 28.6351 40.8669 26.7782V10.3691C40.8669 8.86035 39.868 7.56155 38.4668 7.14326V5.88022H39.0117C40.5067 5.88022 41.7228 7.09602 41.7228 8.59035V31.4535Z"/>
</mask>
<path d="M39.0117 4.60274H38.4668V2.73802C38.4668 1.22827 37.2385 0 35.7285 0H31.8422C31.4895 0 31.2035 0.286072 31.2035 0.638741C31.2035 0.991409 31.4895 1.27715 31.8422 1.27715H35.7285C36.5342 1.27715 37.1897 1.93262 37.1897 2.73802V11.0977L32.9918 4.77956C32.6404 4.25204 32.0525 3.93677 31.4187 3.93677C30.7845 3.93677 30.1963 4.25204 29.845 4.78022L25.9561 10.6339L24.4066 8.30199C24.0559 7.77413 23.4677 7.45886 22.8336 7.45886C22.1994 7.45886 21.6112 7.77413 21.2605 8.30231L18.3263 12.7181V2.73802C18.3263 1.93262 18.9818 1.27715 19.7872 1.27715H29.2876C29.6403 1.27715 29.9263 0.991409 29.9263 0.638741C29.9263 0.286072 29.6403 0 29.2876 0H19.7872C18.2774 0 17.0492 1.22827 17.0492 2.73802V4.60274H3.98762C1.78893 4.60274 0 6.39167 0 8.59035V31.4535C0 33.6525 1.78893 35.4411 3.98762 35.4411H15.1749L13.5205 38.581H12.6705C11.6627 38.581 10.8425 39.4011 10.8425 40.409C10.8425 41.4168 11.6627 42.2369 12.6705 42.2369H13.4877C13.8404 42.2369 14.1264 41.9509 14.1264 41.5982C14.1264 41.2455 13.8404 40.9598 13.4877 40.9598H12.6705C12.367 40.9598 12.12 40.7127 12.12 40.409C12.12 40.1055 12.367 39.8585 12.6705 39.8585H30.3292C30.6326 39.8585 30.8797 40.1055 30.8797 40.409C30.8797 40.7127 30.6326 40.9598 30.3292 40.9598H16.042C15.6893 40.9598 15.4036 41.2455 15.4036 41.5982C15.4036 41.9509 15.6893 42.2369 16.042 42.2369H30.3292C31.337 42.2369 32.1572 41.4168 32.1572 40.409C32.1572 39.4011 31.337 38.581 30.3292 38.581H29.4792L27.8247 35.4411H39.0117C41.2107 35.4411 43 33.6525 43 31.4535V8.59035C43 6.39167 41.2107 4.60274 39.0117 4.60274ZM14.9643 38.581L16.6187 35.4411H26.3813L28.0354 38.581H14.9643ZM21.2677 30.343C21.2677 30.9578 20.7678 31.4581 20.1526 31.4581H7.93324C7.31812 31.4581 6.81815 30.9578 6.81815 30.343V20.5138C6.81815 19.8987 7.31812 19.3988 7.93324 19.3988H20.1526C20.7678 19.3988 21.2677 19.8987 21.2677 20.5138V30.343ZM20.1526 18.1213H7.93324C6.6141 18.1213 5.54067 19.1947 5.54067 20.5138V28.8686H5.50065C4.3475 28.8686 3.40924 27.9307 3.40924 26.7782V10.3691C3.40924 9.21597 4.3475 8.27804 5.50065 8.27804H17.0492V13.4657C17.0492 14.9755 18.2774 16.2037 19.7872 16.2037H35.7285C37.2385 16.2037 38.4668 14.9755 38.4668 13.4657V8.51523C39.1387 8.86626 39.5898 9.56995 39.5898 10.3691V26.7779C39.5898 27.9307 38.6522 28.8683 37.4994 28.8683H22.5452V20.5135C22.5452 19.1947 21.4718 18.1213 20.1526 18.1213ZM30.9085 5.4872C31.024 5.31365 31.21 5.21392 31.4184 5.21392C31.627 5.21392 31.8127 5.31365 31.9282 5.48687L37.1897 13.406V13.4657C37.1897 14.2714 36.5342 14.9266 35.7285 14.9266H28.808L26.7225 11.788L30.9085 5.4872ZM22.3241 9.00896C22.4396 8.83542 22.6249 8.73602 22.8336 8.73602C23.0419 8.73602 23.2276 8.83542 23.3427 9.00896L27.2746 14.9266H19.7872C19.3604 14.9266 18.9772 14.7416 18.7098 14.4489L22.3241 9.00896ZM41.7228 31.4535C41.7228 32.9481 40.5067 34.1639 39.0117 34.1639H3.98762C2.49296 34.1639 1.27715 32.9481 1.27715 31.4535V8.59035C1.27715 7.09602 2.49296 5.88022 3.98762 5.88022H17.0492V7.00056H5.50065C3.64315 7.00056 2.13209 8.51195 2.13209 10.3691V26.7782C2.13209 28.6351 3.64315 30.1458 5.50065 30.1458H5.541V30.343C5.541 31.6621 6.6141 32.7352 7.93324 32.7352H20.153C21.4721 32.7352 22.5452 31.6621 22.5452 30.343V30.1458H37.4994C39.3562 30.1458 40.8669 28.6351 40.8669 26.7782V10.3691C40.8669 8.86035 39.868 7.56155 38.4668 7.14326V5.88022H39.0117C40.5067 5.88022 41.7228 7.09602 41.7228 8.59035V31.4535Z" fill="#C4C4C4" stroke="#C4C4C4" stroke-width="2" mask="url(#path-1-inside-1)"/>
<path d="M25.5565 5.32407C24.6644 5.32407 23.9379 4.59752 23.9379 3.70543C23.9379 2.81334 24.6644 2.08679 25.5565 2.08679C26.4486 2.08679 27.1751 2.81334 27.1751 3.70543C27.1751 4.59752 26.4486 5.32407 25.5565 5.32407ZM25.5565 5.04659C26.2963 5.04659 26.898 4.44571 26.898 3.70543C26.898 2.9654 26.2965 2.36395 25.5565 2.36395C24.8162 2.36395 24.2153 2.96566 24.2153 3.70543C24.2153 4.44545 24.8165 5.04659 25.5565 5.04659Z" fill="#C4C4C4" stroke="#C4C4C4"/>
<path d="M8.97655 22.4518H19.1095C19.186 22.4518 19.2482 22.514 19.2482 22.5905C19.2482 22.6667 19.1863 22.7289 19.1095 22.7289H8.97655C8.90002 22.7289 8.83813 22.667 8.83813 22.5905C8.83813 22.5137 8.90036 22.4518 8.97655 22.4518Z" fill="#C4C4C4" stroke="#C4C4C4"/>
<path d="M8.97655 25.24H19.1095C19.186 25.24 19.2482 25.3022 19.2482 25.3787C19.2482 25.4553 19.186 25.5175 19.1095 25.5175H8.97655C8.90036 25.5175 8.83813 25.4556 8.83813 25.3787C8.83813 25.3019 8.90036 25.24 8.97655 25.24Z" fill="#C4C4C4" stroke="#C4C4C4"/>
<path d="M8.97655 28.1276H14.0976C14.1743 28.1276 14.2364 28.1896 14.2364 28.2663C14.2364 28.3425 14.1745 28.4047 14.0976 28.4047H8.97655C8.90002 28.4047 8.83813 28.3428 8.83813 28.2663C8.83813 28.1893 8.90019 28.1276 8.97655 28.1276Z" fill="#C4C4C4" stroke="#C4C4C4"/>
</svg>
