<svg width="30" height="30" viewBox="0 0 30 30" fill="none" xmlns="http://www.w3.org/2000/svg">
<path d="M22.1984 17.2384C22.14 17.2104 19.9529 16.1334 19.5642 15.9935C19.4056 15.9365 19.2356 15.8809 19.0548 15.8809C18.7595 15.8809 18.5114 16.0281 18.3182 16.3172C18.0997 16.6419 17.4383 17.415 17.234 17.646C17.2073 17.6764 17.1709 17.7129 17.149 17.7129C17.1295 17.7129 16.791 17.5735 16.6885 17.529C14.3424 16.5099 12.5616 14.0591 12.3174 13.6458C12.2825 13.5864 12.2811 13.5594 12.2808 13.5594C12.2893 13.528 12.3682 13.4489 12.4089 13.4081C12.5281 13.2902 12.6571 13.1349 12.782 12.9846C12.8411 12.9134 12.9003 12.8421 12.9585 12.7749C13.1397 12.5641 13.2203 12.4004 13.3138 12.2109L13.3628 12.1124C13.5911 11.6588 13.3961 11.276 13.3331 11.1524C13.2814 11.049 12.3579 8.82021 12.2597 8.58605C12.0236 8.02102 11.7116 7.75793 11.2781 7.75793C11.2379 7.75793 11.2781 7.75793 11.1094 7.76504C10.904 7.77371 9.78531 7.92099 9.2907 8.23277C8.76618 8.56345 7.87885 9.61755 7.87885 11.4713C7.87885 13.1397 8.93761 14.715 9.39219 15.3141C9.40349 15.3292 9.42424 15.3599 9.45433 15.4039C11.1952 17.9464 13.3654 19.8305 15.5655 20.7094C17.6835 21.5554 18.6865 21.6532 19.2566 21.6532C19.2567 21.6532 19.2567 21.6532 19.2567 21.6532C19.4964 21.6532 19.6881 21.6344 19.8573 21.6178L19.9647 21.6075C20.6964 21.5427 22.3043 20.7095 22.67 19.6931C22.9581 18.8925 23.0341 18.0178 22.8424 17.7004C22.7111 17.4846 22.4849 17.376 22.1984 17.2384Z" fill="white"/>
<path d="M15.2663 0C7.14135 0 0.531212 6.56046 0.531212 14.6243C0.531212 17.2325 1.2292 19.7855 2.55144 22.0199L0.0206268 29.4853C-0.0265161 29.6245 0.00854881 29.7784 0.111503 29.8832C0.185822 29.9591 0.286633 30 0.389588 30C0.429036 30 0.468776 29.9941 0.507543 29.9817L8.29196 27.5081C10.4222 28.6462 12.8298 29.247 15.2664 29.247C23.3905 29.2471 30 22.6873 30 14.6243C30 6.56046 23.3905 0 15.2663 0ZM15.2663 26.2007C12.9735 26.2007 10.7528 25.5387 8.84395 24.2861C8.77976 24.2439 8.70524 24.2223 8.63024 24.2223C8.5906 24.2223 8.55086 24.2283 8.51219 24.2406L4.61268 25.4801L5.87151 21.7663C5.91222 21.6461 5.89187 21.5135 5.81687 21.4111C4.36323 19.4248 3.59482 17.0781 3.59482 14.6243C3.59482 8.24027 8.8306 3.04637 15.2662 3.04637C21.701 3.04637 26.9362 8.24027 26.9362 14.6243C26.9363 21.0076 21.7012 26.2007 15.2663 26.2007Z" fill="white"/>
</svg>
