<svg width="45" height="45" viewBox="0 0 45 45" fill="none" xmlns="http://www.w3.org/2000/svg">
<path d="M40.4999 30.0002H1.5V9.00023C1.50047 8.60255 1.65865 8.22129 1.93986 7.94009C2.22106 7.65889 2.60231 7.5007 2.99999 7.50023H4.49999V28.5002H5.99999V3.00024C6.00046 2.60256 6.15865 2.2213 6.43985 1.9401C6.72105 1.6589 7.1023 1.50071 7.49998 1.50024H34.4999C34.8688 1.49999 35.2248 1.63601 35.4996 1.88218L36.5003 0.764868C35.9506 0.272078 35.2382 -0.000232287 34.4999 0.000244766H7.49998C6.70461 0.00113805 5.94207 0.317495 5.37965 0.879909C4.81724 1.44232 4.50088 2.20486 4.49999 3.00024V6.00023H2.99999C2.20462 6.00112 1.44208 6.31748 0.879664 6.8799C0.31725 7.44231 0.000893289 8.20485 0 9.00023V34.5002C0.000893289 35.2955 0.31725 36.0581 0.879664 36.6205C1.44208 37.1829 2.20462 37.4993 2.99999 37.5002H15.4919L13.6919 43.5001H12V45.0001H29.9999V43.5001H28.308L26.508 37.5002H38.9999C39.7953 37.4993 40.5578 37.1829 41.1202 36.6205C41.6827 36.0581 41.999 35.2955 41.9999 34.5002V12.0002H40.4999V30.0002ZM26.7419 43.5001H15.2576L17.0576 37.5002H24.9419L26.7419 43.5001ZM40.4999 34.5002C40.4994 34.8978 40.3413 35.2791 40.0601 35.5603C39.7789 35.8415 39.3976 35.9997 38.9999 36.0002H2.99999C2.60231 35.9997 2.22106 35.8415 1.93986 35.5603C1.65865 35.2791 1.50047 34.8978 1.5 34.5002V31.5002H40.4999V34.5002Z" fill="#C4C4C4"/>
<path d="M35.9999 16.5H37.4999V28.5H35.9999V16.5Z" fill="#C4C4C4"/>
<path d="M7.5 3H9V4.5H7.5V3Z" fill="#C4C4C4"/>
<path d="M10.5 3H12V4.5H10.5V3Z" fill="#C4C4C4"/>
<path d="M13.5 3H15V4.5H13.5V3Z" fill="#C4C4C4"/>
<path d="M7.5 6H30V7.5H7.5V6Z" fill="#C4C4C4"/>
<path d="M41.0679 1.52532e-05C40.5513 -0.00142836 40.0396 0.0996131 39.5623 0.29729C39.085 0.494967 38.6517 0.785354 38.2874 1.15164L19.7196 19.7196C19.6234 19.8156 19.5551 19.9359 19.522 20.0677L18.622 23.6677L18.022 26.0677C17.9906 26.1933 17.9923 26.3249 18.0269 26.4497C18.0615 26.5745 18.1277 26.6882 18.2193 26.7798C18.3109 26.8713 18.4246 26.9376 18.5493 26.9722C18.6741 27.0068 18.8057 27.0085 18.9314 26.9771L21.3314 26.3771L24.9313 25.4771C25.0632 25.444 25.1835 25.3757 25.2794 25.2795L43.8483 6.7125C44.3982 6.1626 44.7727 5.46197 44.9244 4.69922C45.0762 3.93648 44.9983 3.14586 44.7007 2.42737C44.4031 1.70887 43.8991 1.09476 43.2525 0.662693C42.6059 0.230628 41.8456 1.42375e-05 41.0679 1.52532e-05ZM24.7499 23.6893L23.5606 22.5L39.7499 6.31069L40.9392 7.5L24.7499 23.6893ZM22.4999 21.4393L21.3106 20.25L37.4999 4.06069L38.6892 5.25L22.4999 21.4393ZM21.38 24.8193L20.1806 23.6199L20.6563 21.7168L23.2829 24.3435L21.38 24.8193ZM42.7874 5.65163L41.9999 6.43913L38.5605 3.00001L39.348 2.21251C39.5738 1.98668 39.8419 1.80753 40.1369 1.6853C40.432 1.56308 40.7482 1.50016 41.0676 1.50015C41.387 1.50013 41.7032 1.56302 41.9983 1.68523C42.2933 1.80743 42.5614 1.98655 42.7873 2.21237C43.0131 2.43819 43.1922 2.70627 43.3145 3.00132C43.4367 3.29637 43.4996 3.61261 43.4996 3.93197C43.4996 4.25133 43.4367 4.56757 43.3145 4.86263C43.1923 5.15769 43.0132 5.42579 42.7874 5.65163Z" fill="#C4C4C4"/>
<path d="M16.5 9.75C16.5 9.55109 16.421 9.36032 16.2803 9.21967C16.1397 9.07902 15.9489 9 15.75 9H8.25C8.05109 9 7.86032 9.07902 7.71967 9.21967C7.57902 9.36032 7.5 9.55109 7.5 9.75V15.75C7.5 15.9489 7.57902 16.1397 7.71967 16.2803C7.86032 16.421 8.05109 16.5 8.25 16.5H15.75C15.9489 16.5 16.1397 16.421 16.2803 16.2803C16.421 16.1397 16.5 15.9489 16.5 15.75V9.75ZM15 15H9V10.5H15V15Z" fill="#C4C4C4"/>
<path d="M16.5 18.75C16.5 18.5511 16.421 18.3603 16.2803 18.2197C16.1397 18.079 15.9489 18 15.75 18H8.25C8.05109 18 7.86032 18.079 7.71967 18.2197C7.57902 18.3603 7.5 18.5511 7.5 18.75V24.75C7.5 24.9489 7.57902 25.1397 7.71967 25.2803C7.86032 25.421 8.05109 25.5 8.25 25.5H15.75C15.9489 25.5 16.1397 25.421 16.2803 25.2803C16.421 25.1397 16.5 24.9489 16.5 24.75V18.75ZM15 24H9V19.5H15V24Z" fill="#C4C4C4"/>
<path d="M22.5 9H27V10.5H22.5V9Z" fill="#C4C4C4"/>
<path d="M18 12H24V13.5H18V12Z" fill="#C4C4C4"/>
<path d="M18 15H21V16.5H18V15Z" fill="#C4C4C4"/>
<path d="M18 9H21V10.5H18V9Z" fill="#C4C4C4"/>
<path d="M7.5 27H16.5V28.5H7.5V27Z" fill="#C4C4C4"/>
<path d="M23.25 27H34.5V28.5H23.25V27Z" fill="#C4C4C4"/>
<path d="M28.4999 24H34.4999V25.5H28.4999V24Z" fill="#C4C4C4"/>
<path d="M31.4999 21H34.4999V22.5H31.4999V21Z" fill="#C4C4C4"/>
</svg>
