<svg width="12" height="12" viewBox="0 0 12 12" fill="none" xmlns="http://www.w3.org/2000/svg">
<g clip-path="url(#clip0)">
<path d="M2.72654 3.99219H0.148438V11.7343H2.72654V3.99219Z" fill="black"/>
<path d="M11.1875 4.69931C10.646 4.10814 9.92968 3.8125 9.03912 3.8125C8.71101 3.8125 8.41274 3.85286 8.14447 3.93364C7.87627 4.01436 7.64976 4.12762 7.4648 4.27347C7.27996 4.41932 7.13275 4.55472 7.02345 4.67966C6.91953 4.79833 6.8179 4.93658 6.71873 5.09296V3.99206H4.14832L4.1562 4.36711C4.16148 4.61719 4.16408 5.38797 4.16408 6.67957C4.16408 7.97127 4.15888 9.65612 4.14842 11.7343H6.71873V7.41387C6.71873 7.14831 6.74722 6.93742 6.80463 6.78103C6.91408 6.51528 7.07928 6.29278 7.30076 6.11316C7.52221 5.93333 7.79686 5.84349 8.12509 5.84349C8.57287 5.84349 8.90242 5.99843 9.11339 6.30832C9.32428 6.61819 9.42974 7.0466 9.42974 7.59349V11.734H12.0001V7.29681C11.9999 6.15607 11.7292 5.29028 11.1875 4.69931Z" fill="black"/>
<path d="M1.4531 0.265625C1.02086 0.265625 0.670631 0.392018 0.40233 0.644558C0.134055 0.897153 0 1.21605 0 1.60155C0 1.98166 0.130197 2.29946 0.390618 2.5546C0.650957 2.80977 0.994755 2.93742 1.42182 2.93742H1.43745C1.87499 2.93742 2.2279 2.80988 2.4961 2.5546C2.76429 2.29946 2.89577 1.98177 2.8906 1.60155C2.8854 1.21608 2.75249 0.897153 2.49216 0.644558C2.23184 0.391909 1.88536 0.265625 1.4531 0.265625Z" fill="black"/>
</g>
<defs>
<clipPath id="clip0">
<rect width="12" height="12" fill="white"/>
</clipPath>
</defs>
</svg>
