<svg width="42" height="41" viewBox="0 0 42 41" fill="none" xmlns="http://www.w3.org/2000/svg">
<path d="M39.5057 35.7966C39.0175 34.1708 37.6772 32.9723 36.0071 32.6688L31.7969 31.9027V31.5704C33.3714 30.6561 34.5243 29.0964 34.8836 27.2524C36.0501 27.0112 36.9297 25.9763 36.9297 24.7393V18.4022C36.9297 16.6114 35.7568 15.0498 34.0553 14.5416L33.7345 14.2208C32.2421 12.7285 30.2583 11.9072 28.1481 11.9072C23.7923 11.9072 20.2481 15.4508 20.2481 19.8073V24.7393C20.2481 25.9763 21.1277 27.0112 22.2941 27.2524C22.6541 29.0964 23.8064 30.6567 25.3809 31.5704V31.9027L21.1707 32.6682C19.5006 32.9723 18.1603 34.1708 17.672 35.7966L16.1777 40.7793H41L39.5057 35.7966ZM35.0049 25.8441V23.6344C35.3866 23.8571 35.6465 24.2664 35.6465 24.7393C35.6465 25.2121 35.3866 25.6215 35.0049 25.8441ZM22.1729 25.8441C21.7911 25.6215 21.5313 25.2121 21.5313 24.7393C21.5313 24.2664 21.7911 23.8571 22.1729 23.6344V25.8441ZM22.1729 21.5312V22.264C21.9444 22.3236 21.7302 22.4135 21.5313 22.5296V19.8073C21.5313 16.1591 24.4993 13.1904 28.1481 13.1904C29.9151 13.1904 31.5774 13.8789 32.8273 15.1287L33.3932 15.6952L33.5658 15.7376C34.7912 16.0436 35.6465 17.1395 35.6465 18.4022V22.5296C35.4476 22.4135 35.2333 22.323 35.0049 22.264V21.5312H32.9704C31.2316 21.5312 29.5699 20.701 28.5273 19.3107L28.0172 18.6293L26.7423 19.9048C25.6927 20.9538 24.2978 21.5312 22.8145 21.5312H22.1729ZM23.4561 26.0225V22.7849C25.0402 22.638 26.5101 21.9509 27.6496 20.812L27.8991 20.5624C29.1856 21.9823 31.0385 22.8145 32.9704 22.8145H33.7217V26.0225C33.7217 28.8526 31.419 31.1553 28.5889 31.1553C25.7588 31.1553 23.4561 28.8526 23.4561 26.0225ZM26.7186 32.1587C27.3108 32.3397 27.9383 32.4385 28.5889 32.4385C29.2395 32.4385 29.8669 32.3397 30.4591 32.1587L28.5889 33.5613L26.7186 32.1587ZM27.6124 34.4326L26.3028 35.7414L25.4534 33.1936L25.8621 33.1199L27.6124 34.4326ZM31.3157 33.1199L31.7237 33.1943L30.8743 35.7421L29.5647 34.4332L31.3157 33.1199ZM17.9024 39.4961L18.902 36.1655C19.2504 35.0042 20.2076 34.1477 21.401 33.9315L24.1791 33.4265L25.7427 38.1179L28.5889 35.2705L31.4357 38.1173L32.9992 33.4259L35.7774 33.9308C36.9701 34.1477 37.928 35.0042 38.2764 36.1649L39.2754 39.4961H17.9024Z" fill="#C4C4C4" stroke="#C4C4C4" stroke-width="0.2"/>
<path d="M17.6816 11.3741V7.30758L15.9403 6.84371C15.889 6.70961 15.8332 6.57552 15.7722 6.44142L16.6762 4.87976L13.8019 2.00539L12.2402 2.90941C12.1068 2.84845 11.9727 2.79263 11.8392 2.74131L11.3734 1H7.30823L6.84306 2.74195C6.70897 2.79328 6.57552 2.8491 6.44206 2.91005L4.88041 2.00539L2.00603 4.87976L2.91005 6.44142C2.84845 6.57552 2.79263 6.70961 2.74131 6.84371L1 7.30758V11.3741L2.74131 11.8379C2.79263 11.972 2.84845 12.1061 2.91005 12.2402L2.00603 13.8019L4.88041 16.6762L6.44206 15.7722C6.57552 15.8332 6.70961 15.889 6.84306 15.9403L7.30823 17.6816H11.3734L11.8386 15.9397C11.9727 15.8884 12.1061 15.8325 12.2396 15.7716L13.8012 16.6756L16.6756 13.8012L15.7716 12.2396C15.8325 12.1055 15.889 11.9714 15.9397 11.8373L17.6816 11.3741ZM15.0716 13.5908L13.5908 15.0722L12.2851 14.3158L11.9733 14.4756C11.6872 14.6225 11.3959 14.7444 11.1084 14.8374L10.7754 14.9446L10.3879 16.3984H8.29373L7.9062 14.9446L7.57321 14.8374C7.28577 14.7437 6.99448 14.6225 6.70833 14.4756L6.39651 14.3158L5.09085 15.0722L3.61003 13.5908L4.36584 12.2858L4.20608 11.974C4.05787 11.6859 3.93661 11.3946 3.84486 11.1091L3.73771 10.7754L2.2832 10.3879V8.29373L3.73771 7.9062L3.84486 7.57257C3.93661 7.28769 4.05787 6.99641 4.20608 6.70769L4.36584 6.39587L3.61003 5.09085L5.09085 3.60939L6.39651 4.36584L6.70833 4.20608C6.99448 4.05916 7.28577 3.93725 7.57321 3.84422L7.9062 3.73707L8.29373 2.2832H10.3879L10.7754 3.73707L11.1084 3.84422C11.3959 3.93789 11.6872 4.05916 11.9733 4.20608L12.2851 4.36584L13.5908 3.60939L15.0716 5.09085L14.3158 6.39587L14.4756 6.70769C14.6238 6.99577 14.745 7.28705 14.8368 7.57257L14.9439 7.9062L16.3984 8.29373V10.3879L14.9439 10.7754L14.8368 11.1091C14.745 11.3939 14.6238 11.6852 14.4756 11.974L14.3158 12.2858L15.0716 13.5908Z" fill="#C4C4C4" stroke="#C4C4C4" stroke-width="0.2"/>
<path d="M12.9453 12.0208C13.5253 11.2419 13.832 10.3154 13.832 9.34082C13.832 6.86488 11.8174 4.84961 9.34082 4.84961C6.86424 4.84961 4.84961 6.86488 4.84961 9.34082C4.84961 11.8168 6.86424 13.832 9.34082 13.832C10.3417 13.832 11.2881 13.5106 12.0785 12.9017L11.2958 11.8854C10.7312 12.3198 10.0556 12.5488 9.34082 12.5488C7.57192 12.5488 6.13281 11.1097 6.13281 9.34082C6.13281 7.57192 7.57192 6.13281 9.34082 6.13281C11.1097 6.13281 12.5488 7.57192 12.5488 9.34082C12.5488 10.037 12.33 10.6984 11.9162 11.2541L12.9453 12.0208Z" fill="#C4C4C4" stroke="#C4C4C4" stroke-width="0.2"/>
<path d="M39.6841 8.88721L38.8545 9.7168V7.41601C38.8545 3.87822 35.9763 1 32.4385 1H28.5889V2.2832H32.4385C35.2686 2.2832 37.5713 4.58591 37.5713 7.41601V9.7168L36.7417 8.88721L35.8345 9.79443L38.2129 12.1728L40.5913 9.79443L39.6841 8.88721Z" fill="#C4C4C4" stroke="#C4C4C4" stroke-width="0.2"/>
<path d="M4.20801 34.3633V32.0625L5.0376 32.8921L5.94482 31.9849L3.5664 29.6064L1.18799 31.9849L2.09521 32.8921L2.9248 32.0625V34.3633C2.9248 37.9011 5.80303 40.7793 9.34082 40.7793V39.4961C6.51071 39.4961 4.20801 37.1934 4.20801 34.3633Z" fill="#C4C4C4" stroke="#C4C4C4" stroke-width="0.2"/>
<path d="M17.6816 20.248H1V21.5312H17.6816V20.248Z" fill="#C4C4C4" stroke="#C4C4C4" stroke-width="0.2"/>
<path d="M17.6816 25.3809H1V26.6641H17.6816V25.3809Z" fill="#C4C4C4" stroke="#C4C4C4" stroke-width="0.2"/>
<path d="M8.69922 22.8145H1V24.0977H8.69922V22.8145Z" fill="#C4C4C4" stroke="#C4C4C4" stroke-width="0.2"/>
<path d="M13.6716 22.8145H10.624H9.98242V24.0977H10.624H13.6716H17.6816V22.8145H13.6716Z" fill="#C4C4C4" stroke="#C4C4C4" stroke-width="0.2"/>
<path d="M27.3057 1H26.0225V2.2832H27.3057V1Z" fill="#C4C4C4" stroke="#C4C4C4" stroke-width="0.2"/>
<path d="M24.7393 1H23.4561V2.2832H24.7393V1Z" fill="#C4C4C4" stroke="#C4C4C4" stroke-width="0.2"/>
<path d="M11.9072 39.4961H10.624V40.7793H11.9072V39.4961Z" fill="#C4C4C4" stroke="#C4C4C4" stroke-width="0.2"/>
<path d="M14.4736 39.4961H13.1904V40.7793H14.4736V39.4961Z" fill="#C4C4C4" stroke="#C4C4C4" stroke-width="0.2"/>
</svg>
