<svg width="12" height="12" viewBox="0 0 12 12" fill="none" xmlns="http://www.w3.org/2000/svg">
<g clip-path="url(#clip0)">
<path d="M8.99954 0.00249678L7.44343 0C5.69518 0 4.56539 1.15913 4.56539 2.95319V4.3148H3.00079C2.86559 4.3148 2.7561 4.42441 2.7561 4.55961V6.53244C2.7561 6.66764 2.86571 6.77712 3.00079 6.77712H4.56539V11.7552C4.56539 11.8904 4.67488 11.9999 4.81008 11.9999H6.85144C6.98664 11.9999 7.09613 11.8903 7.09613 11.7552V6.77712H8.92551C9.06071 6.77712 9.1702 6.66764 9.1702 6.53244L9.17095 4.55961C9.17095 4.49469 9.1451 4.43252 9.09929 4.38658C9.05347 4.34064 8.99105 4.3148 8.92614 4.3148H7.09613V3.16054C7.09613 2.60576 7.22833 2.32412 7.95102 2.32412L8.99929 2.32375C9.13437 2.32375 9.24385 2.21414 9.24385 2.07906V0.247181C9.24385 0.11223 9.13449 0.00274645 8.99954 0.00249678Z" fill="black"/>
</g>
<defs>
<clipPath id="clip0">
<rect width="12" height="11.9999" fill="white"/>
</clipPath>
</defs>
</svg>
