<svg width="43" height="43" viewBox="0 0 43 43" fill="none" xmlns="http://www.w3.org/2000/svg">
<path d="M41.5672 20.7762C41.2859 20.7854 40.9983 20.9498 40.8871 21.2264L40.2483 22.824L38.6615 17.0055C38.5832 16.719 38.3362 16.5106 38.0409 16.4812C37.7401 16.449 37.4623 16.6085 37.3294 16.8737L35.3782 20.7762H34.2812C35.2829 18.7975 35.821 16.5997 35.821 14.3284C35.821 6.42783 29.3935 0 21.4926 0C13.5916 0 7.16413 6.42783 7.16413 14.3284C7.16413 16.6005 7.70279 18.7989 8.70497 20.7781L8.61166 20.7762C8.32339 20.7854 8.04282 20.9498 7.9316 21.2264L7.29282 22.824L5.70603 17.0055C5.62767 16.719 5.38069 16.5106 5.08543 16.4812C4.78176 16.449 4.50683 16.6085 4.37393 16.8737L2.42267 20.7762H0V22.2091H2.86569C3.13712 22.2091 3.38482 22.0559 3.50653 21.8131L4.81695 19.1916L6.47296 25.2634C6.5541 25.5603 6.81577 25.7724 7.12365 25.7902C7.13691 25.7909 7.15097 25.7913 7.16422 25.7913C7.45598 25.7913 7.72043 25.614 7.8296 25.3411L9.07841 22.219L9.55904 22.2287C9.92674 22.7811 10.322 23.3177 10.7687 23.8198C10.7883 23.8967 10.8212 23.9712 10.8667 24.0394C13.2182 27.5663 13.3553 28.2971 13.7632 30.4666C13.8388 30.8651 13.922 31.3076 14.0276 31.8169C14.21 32.7056 14.7302 33.4291 15.4308 33.8817C15.1889 34.2294 15.0449 34.65 15.0449 35.1049C15.0449 35.8681 15.4476 36.5355 16.0488 36.9168C15.8711 37.2295 15.7613 37.5858 15.7613 37.9705C15.7613 38.7338 16.164 39.4011 16.7653 39.7825C16.5875 40.0952 16.4777 40.4515 16.4777 40.8362C16.4777 42.0214 17.4418 42.9855 18.627 42.9855H24.3583C25.5435 42.9855 26.5076 42.0214 26.5076 40.8362C26.5076 40.4515 26.3978 40.0953 26.2201 39.7825C26.8213 39.4011 27.224 38.7338 27.224 37.9705C27.224 37.5858 27.1142 37.2296 26.9365 36.9168C27.5377 36.5354 27.9405 35.8681 27.9405 35.1049C27.9405 34.65 27.7965 34.2295 27.5546 33.8817C28.2552 33.4293 28.7754 32.7064 28.9577 31.8187C29.0634 31.3076 29.1466 30.8652 29.2221 30.4666C29.63 28.2971 29.7672 27.5663 32.1186 24.0394C32.1641 23.9712 32.197 23.8967 32.2166 23.8198C32.6686 23.3117 33.0682 22.7687 33.4394 22.2093H35.8211C36.0925 22.2093 36.3402 22.056 36.4619 21.8133L37.7724 19.1918L39.4284 25.2635C39.5095 25.5605 39.7712 25.7726 40.0791 25.7904C40.0923 25.7911 40.1064 25.7915 40.1196 25.7915C40.4114 25.7915 40.6758 25.6141 40.785 25.3413L42.0338 22.2192L42.9706 22.2381L43 20.8053L41.5672 20.7762ZM24.3583 41.5525H18.627C18.2317 41.5525 17.9105 41.231 17.9105 40.8361C17.9105 40.4411 18.2317 40.1196 18.627 40.1196H24.3583C24.7536 40.1196 25.0748 40.4411 25.0748 40.8361C25.0748 41.231 24.7536 41.5525 24.3583 41.5525ZM25.0748 38.6868H24.3583H18.627H17.9105C17.5153 38.6868 17.1941 38.3653 17.1941 37.9704C17.1941 37.5754 17.5153 37.2539 17.9105 37.2539H25.0748C25.4701 37.2539 25.7912 37.5754 25.7912 37.9704C25.7912 38.3653 25.4701 38.6868 25.0748 38.6868ZM25.7912 35.8211H25.0748H17.9105H17.1941C16.7988 35.8211 16.4777 35.4996 16.4777 35.1047C16.4777 34.7097 16.7988 34.3883 17.1941 34.3883H25.7912C26.1865 34.3883 26.5076 34.7097 26.5076 35.1047C26.5076 35.4996 26.1865 35.8211 25.7912 35.8211ZM30.8866 23.1501C30.7697 23.2743 30.7032 23.4334 30.6928 23.5971C28.4015 27.0754 28.2244 28.0192 27.8138 30.2017C27.7404 30.592 27.6585 31.0262 27.5543 31.5292C27.3822 32.3688 26.6832 32.9554 25.8556 32.9554H25.7912H24.4955L26.3919 22.2091H27.224C28.4092 22.2091 29.3733 21.245 29.3733 20.0598V17.1941H31.5226C31.9186 17.1941 32.239 16.8733 32.239 16.4777V12.8956C32.239 11.7105 31.2749 10.7463 30.0897 10.7463V8.59706C30.0897 7.41192 29.1256 6.4478 27.9405 6.4478H27.224C27.224 5.26266 26.2599 4.29853 25.0748 4.29853H22.9255C22.5295 4.29853 22.2091 4.61931 22.2091 5.01495V21.4927C22.2091 21.8883 22.5295 22.2091 22.9255 22.2091H24.9376L23.0412 32.9554H19.9442L18.0478 22.2091H20.0598C20.4558 22.2091 20.7762 21.8883 20.7762 21.4927V5.01495C20.7762 4.61931 20.4558 4.29853 20.0598 4.29853H17.9105C16.7254 4.29853 15.7613 5.26266 15.7613 6.4478H15.0449C13.8597 6.4478 12.8956 7.41192 12.8956 8.59706V10.7463C11.7105 10.7463 10.7463 11.7105 10.7463 12.8956V17.9105C10.7463 18.3062 11.0667 18.627 11.4628 18.627H13.612V20.0598C13.612 21.245 14.5761 22.2091 15.7613 22.2091H16.5934L18.4898 32.9554H17.1941H17.1297C16.3021 32.9554 15.6031 32.3687 15.431 31.5275C15.3268 31.0262 15.2449 30.5921 15.1715 30.2017C14.7608 28.0192 14.5838 27.0754 12.2925 23.5971C12.2821 23.4334 12.2156 23.2743 12.0988 23.1501C9.84032 20.7581 8.59706 17.6254 8.59706 14.3284C8.59706 7.21777 14.3823 1.43284 21.4927 1.43284C28.603 1.43284 34.3883 7.21777 34.3883 14.3284C34.3883 17.6254 33.145 20.7581 30.8866 23.1501ZM26.5076 12.1792V10.0299C26.5076 9.63426 26.1872 9.31349 25.7912 9.31349H23.6419V5.73138H25.0748C25.4701 5.73138 25.7912 6.05287 25.7912 6.4478V7.16422C25.7912 7.55986 26.1116 7.88064 26.5076 7.88064H27.9405C28.3357 7.88064 28.6569 8.20214 28.6569 8.59706V11.4628C28.6569 11.8584 28.9773 12.1792 29.3733 12.1792H30.0897C30.485 12.1792 30.8061 12.5007 30.8061 12.8956V15.7613H28.6569H25.7912C25.3952 15.7613 25.0748 16.0821 25.0748 16.4777V17.9105H26.5076V17.1941H27.9405V20.0598C27.9405 20.4547 27.6193 20.7762 27.224 20.7762H23.6419V10.7463H25.0748V12.1792H26.5076ZM14.3284 14.3284C13.9324 14.3284 13.612 14.6492 13.612 15.0449V17.1941H12.1792V12.8956C12.1792 12.5007 12.5003 12.1792 12.8956 12.1792H13.612C14.008 12.1792 14.3284 11.8584 14.3284 11.4628V8.59706C14.3284 8.20214 14.6496 7.88064 15.0449 7.88064H15.7613V9.31349H17.1941V7.16422V6.4478C17.1941 6.05287 17.5153 5.73138 17.9105 5.73138H19.3434V20.7762H15.7613C15.366 20.7762 15.0449 20.4547 15.0449 20.0598V17.9105V15.7613H16.4777V14.3284H14.3284Z" fill="#C4C4C4"/>
</svg>
