<svg width="40" height="40" viewBox="0 0 40 40" fill="none" xmlns="http://www.w3.org/2000/svg">
<path d="M4.31732 2.24701C3.37006 2.24701 2.59949 3.01788 2.59949 3.96485C2.59949 4.91211 3.37006 5.68299 4.31732 5.68299C5.26459 5.68299 6.03547 4.91211 6.03547 3.96485C6.03547 3.01788 5.26459 2.24701 4.31732 2.24701ZM4.31732 4.51203C4.01581 4.51203 3.77014 4.26667 3.77014 3.96485C3.77014 3.66333 4.01581 3.41797 4.31732 3.41797C4.61914 3.41797 4.86451 3.66333 4.86451 3.96485C4.86451 4.26667 4.61914 4.51203 4.31732 4.51203Z" fill="#3F51B5"/>
<path d="M8.69129 2.24701C7.74402 2.24701 6.97314 3.01788 6.97314 3.96485C6.97314 4.91211 7.74402 5.68299 8.69129 5.68299C9.63855 5.68299 10.4091 4.91211 10.4091 3.96485C10.4091 3.01788 9.63855 2.24701 8.69129 2.24701ZM8.69129 4.51203C8.38947 4.51203 8.14411 4.26667 8.14411 3.96485C8.14411 3.66333 8.38947 3.41797 8.69129 3.41797C8.9928 3.41797 9.23847 3.66333 9.23847 3.96485C9.23847 4.26667 8.9928 4.51203 8.69129 4.51203Z" fill="#3F51B5"/>
<path d="M13.0651 2.24701C12.1179 2.24701 11.3473 3.01788 11.3473 3.96485C11.3473 4.91211 12.1179 5.68299 13.0651 5.68299C14.0124 5.68299 14.7833 4.91211 14.7833 3.96485C14.7833 3.01788 14.0124 2.24701 13.0651 2.24701ZM13.0651 4.51203C12.7636 4.51203 12.5179 4.26667 12.5179 3.96485C12.5179 3.66333 12.7636 3.41797 13.0651 3.41797C13.3669 3.41797 13.6123 3.66333 13.6123 3.96485C13.6123 4.26667 13.3669 4.51203 13.0651 4.51203Z" fill="#3F51B5"/>
<path d="M39.3701 11.5488C39.6936 11.5488 39.9557 11.2866 39.9557 10.9631L40 2.57629C40 1.1557 38.8443 0 37.4237 0H2.5766C1.15601 0 0 1.15601 0 2.5766V30.9021C0 32.1896 0.949402 33.2596 2.18475 33.4488C2.31262 33.4686 2.44354 33.4787 2.5766 33.4787H13.9676V35.5783H12.2C11.0211 35.5783 10.0616 36.5375 10.0616 37.7164V38.9813C10.0616 39.5193 10.4993 39.957 11.0373 39.957H13.829C14.1522 39.957 14.4144 39.6948 14.4144 39.3713C14.4144 39.0482 14.1522 38.786 13.829 38.786H11.2326V37.7164C11.2326 37.1829 11.6666 36.749 12.2 36.749H27.7557C28.2892 36.749 28.7231 37.1829 28.7231 37.7164V38.786H17.4634C17.1402 38.786 16.8781 39.0482 16.8781 39.3713C16.8781 39.6948 17.1402 39.957 17.4634 39.957H28.9182C29.4562 39.957 29.8938 39.5193 29.8938 38.9813V37.7164C29.8938 36.5375 28.9346 35.5783 27.7554 35.5783H25.9879V33.4787H37.3792C37.5122 33.4787 37.6431 33.4686 37.7707 33.4488C39.0063 33.2596 39.9554 32.1896 39.9554 30.9021V14.5929C39.9554 14.2694 39.6936 14.0073 39.3701 14.0073C39.0469 14.0073 38.7848 14.2694 38.7848 14.5929V27.5107H20.4852V7.96326H38.7848V10.9631C38.7848 11.2866 39.0469 11.5488 39.3701 11.5488ZM1.21399 7.96326H19.3143V27.4686H1.21399V7.96326ZM24.8172 35.5783H15.1385V33.4787H24.8172V35.5783ZM38.7848 28.6816V30.9021C38.7848 31.6287 38.2306 32.2284 37.5226 32.3007C37.4753 32.3053 37.4277 32.3077 37.3792 32.3077H2.5766C2.52808 32.3077 2.48016 32.3053 2.43317 32.3007C1.72516 32.2284 1.17096 31.6287 1.17096 30.9021V28.6816H38.7848ZM19.8999 6.7923H1.21399V2.57629C1.21399 1.80145 1.84448 1.17096 2.61963 1.17096H37.3792C38.1543 1.17096 38.7848 1.80145 38.7848 2.5766V6.7923H19.8999Z" fill="#3F51B5"/>
<path d="M3.66461 10.2963H6.63062C6.9538 10.2963 7.21595 10.0345 7.21595 9.711C7.21595 9.38782 6.9538 9.12567 6.63062 9.12567H3.66461C3.34113 9.12567 3.07898 9.38782 3.07898 9.711C3.07898 10.0345 3.34113 10.2963 3.66461 10.2963Z" fill="#3F51B5"/>
<path d="M8.66004 10.2963H10.0651C10.3882 10.2963 10.6504 10.0345 10.6504 9.711C10.6504 9.38782 10.3882 9.12567 10.0651 9.12567H8.66004C8.33655 9.12567 8.07471 9.38782 8.07471 9.711C8.07471 10.0345 8.33655 10.2963 8.66004 10.2963Z" fill="#3F51B5"/>
<path d="M8.11341 11.192H6.16211C5.83893 11.192 5.57678 11.4542 5.57678 11.7777C5.57678 12.1008 5.83893 12.363 6.16211 12.363H8.11341C8.4369 12.363 8.69904 12.1008 8.69904 11.7777C8.69904 11.4542 8.4369 11.192 8.11341 11.192Z" fill="#3F51B5"/>
<path d="M17.324 13.3325H15.3727C15.0495 13.3325 14.7874 13.5947 14.7874 13.9178C14.7874 14.241 15.0495 14.5032 15.3727 14.5032H17.324C17.6475 14.5032 17.9093 14.241 17.9093 13.9178C17.9093 13.5947 17.6475 13.3325 17.324 13.3325Z" fill="#3F51B5"/>
<path d="M9.32349 11.7777C9.32349 12.1008 9.58563 12.363 9.90881 12.363H14.5921C14.9155 12.363 15.1777 12.1008 15.1777 11.7777C15.1777 11.4542 14.9155 11.192 14.5921 11.192H9.90881C9.58563 11.192 9.32349 11.4542 9.32349 11.7777Z" fill="#3F51B5"/>
<path d="M7.44995 13.9178C7.44995 14.241 7.7121 14.5032 8.03558 14.5032H9.0503C9.37348 14.5032 9.63562 14.241 9.63562 13.9178C9.63562 13.5947 9.37348 13.3325 9.0503 13.3325H8.03558C7.7121 13.3325 7.44995 13.5947 7.44995 13.9178Z" fill="#3F51B5"/>
<path d="M13.5773 14.5032C13.9008 14.5032 14.1629 14.241 14.1629 13.9178C14.1629 13.5947 13.9008 13.3325 13.5773 13.3325H10.7675C10.444 13.3325 10.1819 13.5947 10.1819 13.9178C10.1819 14.241 10.444 14.5032 10.7675 14.5032H13.5773Z" fill="#3F51B5"/>
<path d="M7.21595 21.5055C7.21595 21.182 6.9538 20.9202 6.63062 20.9202H3.66461C3.34113 20.9202 3.07898 21.182 3.07898 21.5055C3.07898 21.8287 3.34113 22.0908 3.66461 22.0908H6.63062C6.9538 22.0908 7.21595 21.8287 7.21595 21.5055Z" fill="#3F51B5"/>
<path d="M8.66004 20.9202C8.33655 20.9202 8.07471 21.182 8.07471 21.5055C8.07471 21.8287 8.33655 22.0908 8.66004 22.0908H10.0651C10.3882 22.0908 10.6504 21.8287 10.6504 21.5055C10.6504 21.182 10.3882 20.9202 10.0651 20.9202H8.66004Z" fill="#3F51B5"/>
<path d="M8.69904 23.5718C8.69904 23.2487 8.4369 22.9865 8.11341 22.9865H6.16211C5.83893 22.9865 5.57678 23.2487 5.57678 23.5718C5.57678 23.8953 5.83893 24.1575 6.16211 24.1575H8.11341C8.4369 24.1575 8.69904 23.8953 8.69904 23.5718Z" fill="#3F51B5"/>
<path d="M9.0503 25.127H8.03558C7.7121 25.127 7.44995 25.3889 7.44995 25.7123C7.44995 26.0355 7.7121 26.2977 8.03558 26.2977H9.0503C9.37348 26.2977 9.63562 26.0355 9.63562 25.7123C9.63562 25.3889 9.37348 25.127 9.0503 25.127Z" fill="#3F51B5"/>
<path d="M17.324 25.127H15.3727C15.0495 25.127 14.7874 25.3889 14.7874 25.7123C14.7874 26.0355 15.0495 26.2977 15.3727 26.2977H17.324C17.6475 26.2977 17.9093 26.0355 17.9093 25.7123C17.9093 25.3889 17.6475 25.127 17.324 25.127Z" fill="#3F51B5"/>
<path d="M15.1777 23.5718C15.1777 23.2487 14.9155 22.9865 14.5921 22.9865H9.90881C9.58563 22.9865 9.32349 23.2487 9.32349 23.5718C9.32349 23.8953 9.58563 24.1575 9.90881 24.1575H14.5921C14.9155 24.1575 15.1777 23.8953 15.1777 23.5718Z" fill="#3F51B5"/>
<path d="M13.5773 25.127H10.7675C10.444 25.127 10.1819 25.3889 10.1819 25.7123C10.1819 26.0355 10.444 26.2977 10.7675 26.2977H13.5773C13.9008 26.2977 14.1629 26.0355 14.1629 25.7123C14.1629 25.3889 13.9008 25.127 13.5773 25.127Z" fill="#3F51B5"/>
<path d="M3.66461 17.1857H5.30372C5.6269 17.1857 5.88904 16.9236 5.88904 16.6004C5.88904 16.2769 5.6269 16.0151 5.30372 16.0151H3.66461C3.34113 16.0151 3.07898 16.2769 3.07898 16.6004C3.07898 16.9236 3.34113 17.1857 3.66461 17.1857Z" fill="#3F51B5"/>
<path d="M13.5382 16.6004C13.5382 16.2769 13.2764 16.0151 12.9529 16.0151H6.94275C6.61957 16.0151 6.35742 16.2769 6.35742 16.6004C6.35742 16.9236 6.61957 17.1857 6.94275 17.1857H12.9529C13.2764 17.1857 13.5382 16.9236 13.5382 16.6004Z" fill="#3F51B5"/>
<path d="M12.4457 18.6667C12.4457 18.3436 12.1835 18.0814 11.8601 18.0814H6.16211C5.83893 18.0814 5.57678 18.3436 5.57678 18.6667C5.57678 18.9902 5.83893 19.2524 6.16211 19.2524H11.8601C12.1835 19.2524 12.4457 18.9902 12.4457 18.6667Z" fill="#3F51B5"/>
<path d="M13.4995 19.2524H14.592C14.9155 19.2524 15.1776 18.9902 15.1776 18.6667C15.1776 18.3436 14.9155 18.0814 14.592 18.0814H13.4995C13.176 18.0814 12.9138 18.3436 12.9138 18.6667C12.9138 18.9902 13.176 19.2524 13.4995 19.2524Z" fill="#3F51B5"/>
<path d="M26.7982 22.6292H23.0518C22.7283 22.6292 22.4662 22.8913 22.4662 23.2145C22.4662 23.538 22.7283 23.7998 23.0518 23.7998H26.7982C27.1217 23.7998 27.3838 23.538 27.3838 23.2145C27.3838 22.8913 27.1217 22.6292 26.7982 22.6292Z" fill="#3F51B5"/>
<path d="M36.3208 22.6292H28.9056C28.5825 22.6292 28.3203 22.8913 28.3203 23.2145C28.3203 23.538 28.5825 23.7998 28.9056 23.7998H36.3208C36.6443 23.7998 36.9065 23.538 36.9065 23.2145C36.9065 22.8913 36.6443 22.6292 36.3208 22.6292Z" fill="#3F51B5"/>
<path d="M26.7982 24.8926H23.0518C22.7283 24.8926 22.4662 25.1548 22.4662 25.4783C22.4662 25.8015 22.7283 26.0636 23.0518 26.0636H26.7982C27.1217 26.0636 27.3838 25.8015 27.3838 25.4783C27.3838 25.1548 27.1217 24.8926 26.7982 24.8926Z" fill="#3F51B5"/>
<path d="M36.3208 24.8926H28.9056C28.5825 24.8926 28.3203 25.1548 28.3203 25.4783C28.3203 25.8015 28.5825 26.0636 28.9056 26.0636H36.3208C36.6443 26.0636 36.9065 25.8015 36.9065 25.4783C36.9065 25.1548 36.6443 24.8926 36.3208 24.8926Z" fill="#3F51B5"/>
<path d="M36.9242 10.6384C36.9242 9.80438 36.2458 9.12567 35.4117 9.12567H23.9609C23.1268 9.12567 22.4481 9.80438 22.4481 10.6384V18.5669V18.5675V19.9542C22.4481 20.7883 23.1268 21.467 23.9609 21.467H35.4117C36.2458 21.467 36.9242 20.7883 36.9242 19.9542V10.6384ZM35.7535 19.9542C35.7535 20.1428 35.6 20.296 35.4117 20.296H23.9609C23.7723 20.296 23.6191 20.1428 23.6191 19.9542V18.8098L27.9068 14.5242L30.8661 17.8592C31.0806 18.1012 31.4508 18.1232 31.6925 17.9086C31.9345 17.6941 31.9565 17.3242 31.742 17.0822L31.4734 16.7798L32.7967 15.4572L35.7535 18.7897V19.9542ZM35.7535 17.0255L33.5004 14.4864C33.3316 14.2963 33.089 14.1827 32.8348 14.1751C32.5794 14.1678 32.3316 14.2664 32.1518 14.4461L30.6949 15.9021L28.6105 13.5535C28.4418 13.363 28.1992 13.2495 27.945 13.2422C27.6911 13.2352 27.4417 13.3331 27.262 13.5129L23.6191 17.1543V10.6384C23.6191 10.4498 23.7723 10.2963 23.9609 10.2963H35.4117C35.6003 10.2963 35.7535 10.4498 35.7535 10.6384V17.0255Z" fill="#3F51B5"/>
</svg>
