<svg width="45" height="44" viewBox="0 0 45 44" fill="none" xmlns="http://www.w3.org/2000/svg">
<path d="M44 35.2896V30.0796L42.1152 29.6124C41.974 29.191 41.8068 28.783 41.6138 28.3932L42.614 26.7335L38.9296 23.0497L37.2698 24.0489C36.8797 23.8562 36.4721 23.6887 36.0513 23.5471L35.5842 21.6637H30.3742L29.907 23.5478C29.4863 23.6887 29.0787 23.8562 28.6889 24.0499L27.0288 23.0504L23.3443 26.7341L23.7109 27.3422L19.2035 26.5909V26.413C20.758 25.6966 22.0522 24.5141 22.9064 23.0413H24.0251C25.1642 23.0413 26.0914 22.1144 26.0914 20.9749C27.2306 20.9749 28.1578 20.048 28.1578 18.9086V16.1534C28.1578 15.2568 27.5797 14.499 26.7802 14.2138V11.9174C26.7802 5.89755 21.8827 1 15.8635 1C12.9472 1 10.2059 2.13509 8.14419 4.1981L7.82468 4.51626C5.99777 5.06178 4.73891 6.73903 4.73891 8.66146V14.2138C3.93913 14.499 3.36133 15.2568 3.36133 16.1534V18.9086C3.36133 20.048 4.28824 20.9749 5.4277 20.9749H7.76616C8.39206 23.3948 10.0851 25.3848 12.3156 26.413V26.5909L7.00573 27.4757C5.2925 27.7616 3.86043 28.9532 3.26682 30.5844L1 36.8171H24.2729C24.2978 36.8696 24.319 36.9241 24.3446 36.9749L23.3443 38.635L27.0288 42.3187L28.6889 41.3192C29.0787 41.5119 29.4863 41.6794 29.907 41.8213L30.3742 43.705H35.5842L36.0513 41.8213C36.4721 41.68 36.8797 41.5126 37.2698 41.3192L38.9296 42.3187L42.614 38.635L41.6138 36.9749C41.8068 36.5857 41.974 36.1781 42.1152 35.7557L44 35.2896ZM22.5641 35.4396H16.4484V31.2372C17.9786 30.9254 19.1332 29.5926 19.1911 27.9849L24.1552 28.812C24.0415 29.0733 23.9346 29.3383 23.8431 29.6124L21.9587 30.0796V35.2896L22.5641 35.4396ZM13.6932 26.902C14.3551 27.0735 15.0452 27.1741 15.7596 27.1741C16.4736 27.1741 17.1637 27.0735 17.8259 26.902V27.8629C17.8259 29.0023 16.8987 29.9292 15.7596 29.9292C14.6201 29.9292 13.6932 29.0023 13.6932 27.8629V26.902ZM24.0251 21.6637H23.5428C23.6228 21.4387 23.6921 21.2094 23.753 20.9749H24.7139C24.7139 21.3553 24.4044 21.6637 24.0251 21.6637ZM26.7802 18.9086C26.7802 19.2889 26.4708 19.5974 26.0914 19.5974V16.8422H24.7139V19.5974H23.9897C24.0089 19.3693 24.0251 19.1413 24.0251 18.9086V15.4646H26.0914C26.4708 15.4646 26.7802 15.7734 26.7802 16.1534V18.9086ZM5.4277 19.5974C5.04799 19.5974 4.73891 19.2889 4.73891 18.9086V16.1534C4.73891 15.7734 5.04799 15.4646 5.4277 15.4646H7.49408V18.9086C7.49408 19.1413 7.50988 19.3693 7.52905 19.5974H5.4277ZM7.49408 12.7094V14.087H6.11649V8.66146C6.11649 7.30607 7.03466 6.12961 8.35002 5.80102L8.53533 5.75562L9.11886 5.1721C10.9199 3.3694 13.3148 2.37758 15.8635 2.37758C21.1229 2.37758 25.4026 6.65697 25.4026 11.9174V14.087H24.0251V12.7094H23.3363C20.8552 12.7094 18.5228 11.7439 16.7685 9.9896L15.7596 8.97962L14.7509 9.9896C12.996 11.7439 10.6636 12.7094 8.18287 12.7094H7.49408ZM8.87166 18.9086V14.0658C11.4614 13.9017 13.8735 12.8151 15.7249 10.9636L15.7596 10.9289L15.7939 10.9636C17.6453 12.8151 20.0574 13.9017 22.6475 14.0658V18.9086C22.6475 19.8883 22.4386 20.8192 22.068 21.6637H18.3879C18.1027 20.8643 17.345 20.2861 16.4484 20.2861H15.0708C13.9313 20.2861 13.0044 21.2134 13.0044 22.3525C13.0044 23.492 13.9313 24.4189 15.0708 24.4189H16.4484C17.345 24.4189 18.1027 23.8411 18.3879 23.0413H21.2568C19.9983 24.7105 18.0062 25.7965 15.7596 25.7965C11.9615 25.7965 8.87166 22.7067 8.87166 18.9086ZM17.1371 22.3525C17.1371 22.7329 16.8277 23.0413 16.4484 23.0413H15.0708C14.6911 23.0413 14.382 22.7329 14.382 22.3525C14.382 21.9725 14.6911 21.6637 15.0708 21.6637H16.4484C16.8277 21.6637 17.1371 21.9725 17.1371 22.3525ZM4.56167 31.0549C4.98544 29.8902 6.00887 29.0386 7.23208 28.8342L12.3277 27.9849C12.3856 29.5926 13.5402 30.9254 15.0708 31.2372V35.4396H7.68746L8.16201 33.54L6.8258 33.2067L6.26717 35.4396H2.96716L4.56167 31.0549ZM41.0229 34.6082L40.9119 34.9899C40.7397 35.5835 40.5076 36.1485 40.2211 36.6678L40.0297 37.0156L40.8782 38.4234L38.718 40.5843L37.3102 39.7358L36.9624 39.9271C36.4418 40.2137 35.8768 40.4464 35.2845 40.6186L34.9031 40.7289L34.5069 42.3275H31.4514L31.0552 40.7282L30.6738 40.6179C30.0816 40.4457 29.5172 40.213 28.9959 39.9264L28.6482 39.7351L27.2403 40.5836L25.0801 38.4227L25.9287 37.0149L25.7373 36.6671C25.4507 36.1479 25.2187 35.5835 25.0465 34.9892L24.9355 34.6075L23.3363 34.2123V31.1568L24.9355 30.7606L25.0465 30.3792C25.2187 29.7853 25.4507 29.2206 25.7373 28.7013L25.9287 28.3532L25.0801 26.9454L27.2403 24.7848L28.6482 25.6334L28.9959 25.442C29.5166 25.1554 30.0816 24.9224 30.6738 24.7502L31.0552 24.6402L31.4514 23.0413H34.5069L34.9031 24.6409L35.2845 24.7508C35.8768 24.923 36.4411 25.1561 36.9624 25.4427L37.3102 25.634L38.718 24.7855L40.8782 26.946L40.0297 28.3539L40.2211 28.702C40.5076 29.2213 40.7397 29.7853 40.9119 30.3799L41.0229 30.7613L42.6224 31.1568V34.2123L41.0229 34.6082Z" fill="#C4C4C4" stroke="#C4C4C4" stroke-width="0.2"/>
<path d="M32.9795 25.7964C29.1814 25.7964 26.0916 28.8865 26.0916 32.6843C26.0916 36.4824 29.1814 39.5722 32.9795 39.5722C36.7772 39.5722 39.8674 36.4824 39.8674 32.6843C39.8674 28.8865 36.7772 25.7964 32.9795 25.7964ZM32.9795 38.1946C29.9411 38.1946 27.4691 35.7226 27.4691 32.6843C27.4691 29.6463 29.9411 27.174 32.9795 27.174C36.0175 27.174 38.4898 29.6463 38.4898 32.6843C38.4898 35.7226 36.0175 38.1946 32.9795 38.1946Z" fill="#C4C4C4" stroke="#C4C4C4" stroke-width="0.2"/>
<path d="M32.9794 28.5518C30.7002 28.5518 28.8467 30.4052 28.8467 32.6845C28.8467 34.9638 30.7002 36.8173 32.9794 36.8173V35.4397C31.4599 35.4397 30.2243 34.204 30.2243 32.6845C30.2243 31.165 31.4599 29.9293 32.9794 29.9293C34.4986 29.9293 35.7346 31.165 35.7346 32.6845H37.1122C37.1122 30.4052 35.2584 28.5518 32.9794 28.5518Z" fill="#C4C4C4" stroke="#C4C4C4" stroke-width="0.2"/>
<path d="M12.3156 16.1534C12.3156 16.5338 12.0072 16.8422 11.6268 16.8422C11.2461 16.8422 10.938 16.5338 10.938 16.1534C10.938 15.773 11.2461 15.4646 11.6268 15.4646C12.0072 15.4646 12.3156 15.773 12.3156 16.1534Z" fill="#C4C4C4" stroke="#C4C4C4" stroke-width="0.2"/>
<path d="M20.5812 16.1534C20.5812 16.5338 20.2728 16.8422 19.8924 16.8422C19.5117 16.8422 19.2036 16.5338 19.2036 16.1534C19.2036 15.773 19.5117 15.4646 19.8924 15.4646C20.2728 15.4646 20.5812 15.773 20.5812 16.1534Z" fill="#C4C4C4" stroke="#C4C4C4" stroke-width="0.2"/>
</svg>
