<svg width="50" height="61" viewBox="0 0 50 61" fill="none" xmlns="http://www.w3.org/2000/svg">
<path d="M47 0H6.00059C2.68829 0.00330734 0.00397524 2.68763 0.000667906 5.99992V49.9993C-0.00248522 50.195 0.00552774 50.3906 0.0246676 50.5853C0.407851 53.7015 3.07109 56.0324 6.21059 55.9993H10.0005V57.9992C9.99549 58.7214 10.3846 59.3888 11.0155 59.7402C11.6412 60.1 12.4133 60.09 13.0295 59.7142L16.0005 57.9302L18.9704 59.7122C19.588 60.0833 20.3575 60.0934 20.9847 59.7389C21.6119 59.3843 21.9999 58.7197 22.0004 57.9992V55.9993H47C48.6569 55.9993 50 54.6561 50 52.9993V2.99996C50 1.34313 48.6569 0 47 0ZM20.0004 57.9992L17.0284 56.2162C16.3953 55.8366 15.6046 55.8366 14.9715 56.2162L12.0005 57.9992V50.9993H20.0004V57.9992ZM22.0004 50.9993H25.0003C25.5526 50.9993 26.0003 50.5516 26.0003 49.9993C26.0003 49.4471 25.5526 48.9993 25.0003 48.9993H8.00056C7.44828 48.9993 7.00057 49.4471 7.00057 49.9993C7.00057 50.5516 7.44828 50.9993 8.00056 50.9993H10.0005V53.9993H6.21059C4.09028 54.0389 2.2802 52.4758 2.01064 50.3723C1.99985 50.2483 1.99651 50.1238 2.00064 49.9993C2.00941 47.7939 3.79512 46.0082 6.00059 45.9994H43.0001C41.6655 48.499 41.6655 51.4996 43.0001 53.9993H22.0004V50.9993ZM47 53.9993H46.0001C45.0561 53.9993 44.0001 52.2883 44.0001 49.9993C44.0001 47.7104 45.0561 45.9994 46.0001 45.9994H47C47.3508 45.9972 47.6952 45.9049 48 45.7314V52.9993C48 53.5516 47.5523 53.9993 47 53.9993ZM47 43.9994H8.00056V42.9994C8.00056 42.4471 7.55285 41.9994 7.00057 41.9994C6.4483 41.9994 6.00059 42.4471 6.00059 42.9994V43.9994C4.52259 43.9988 3.09705 44.5472 2.00064 45.5384V5.99992C2.00064 3.79081 3.79148 1.99997 6.00059 1.99997V2.99996C6.00059 3.55224 6.4483 3.99995 7.00057 3.99995C7.55285 3.99995 8.00056 3.55224 8.00056 2.99996V1.99997H47C47.5523 1.99997 48 2.44768 48 2.99996V41.9994C47.9714 42.7793 47.6067 43.5086 47 43.9994Z" fill="#E82C0C"/>
<path d="M7.0006 6C6.44832 6 6.00061 6.44771 6.00061 6.99999V8.99996C6.00061 9.55224 6.44832 9.99995 7.0006 9.99995C7.55287 9.99995 8.00058 9.55224 8.00058 8.99996V6.99999C8.00058 6.44771 7.55287 6 7.0006 6Z" fill="#E82C0C"/>
<path d="M7.0006 11.9999C6.44832 11.9999 6.00061 12.4476 6.00061 12.9999V14.9998C6.00061 15.5521 6.44832 15.9998 7.0006 15.9998C7.55287 15.9998 8.00058 15.5521 8.00058 14.9998V12.9999C8.00058 12.4476 7.55287 11.9999 7.0006 11.9999Z" fill="#E82C0C"/>
<path d="M7.0006 17.9998C6.44832 17.9998 6.00061 18.4475 6.00061 18.9997V20.9997C6.00061 21.552 6.44832 21.9997 7.0006 21.9997C7.55287 21.9997 8.00058 21.552 8.00058 20.9997V18.9997C8.00058 18.4475 7.55287 17.9998 7.0006 17.9998Z" fill="#E82C0C"/>
<path d="M7.0006 23.9996C6.44832 23.9996 6.00061 24.4473 6.00061 24.9996V26.9996C6.00061 27.5519 6.44832 27.9996 7.0006 27.9996C7.55287 27.9996 8.00058 27.5519 8.00058 26.9996V24.9996C8.00058 24.4473 7.55287 23.9996 7.0006 23.9996Z" fill="#E82C0C"/>
<path d="M7.0006 29.9996C6.44832 29.9996 6.00061 30.4473 6.00061 30.9996V32.9996C6.00061 33.5519 6.44832 33.9996 7.0006 33.9996C7.55287 33.9996 8.00058 33.5519 8.00058 32.9996V30.9996C8.00058 30.4473 7.55287 29.9996 7.0006 29.9996Z" fill="#E82C0C"/>
<path d="M7.0006 35.9995C6.44832 35.9995 6.00061 36.4472 6.00061 36.9995V38.9995C6.00061 39.5517 6.44832 39.9995 7.0006 39.9995C7.55287 39.9995 8.00058 39.5517 8.00058 38.9995V36.9995C8.00058 36.4472 7.55287 35.9995 7.0006 35.9995Z" fill="#E82C0C"/>
<path d="M16.9515 22.9997L21.2784 17.9517C22.0142 17.143 22.2517 15.9979 21.8983 14.9632C21.5449 13.9285 20.6565 13.168 19.5796 12.9784C18.5028 12.7888 17.4081 13.2 16.7225 14.0518L10.7226 21.0517C9.75508 22.1717 9.75508 23.8317 10.7226 24.9516L16.7225 31.9515C17.8052 33.1916 19.685 33.3275 20.9348 32.256C22.1846 31.1845 22.3375 29.3061 21.2774 28.0466L16.9515 22.9997ZM19.6514 30.7586C19.4707 30.915 19.2394 31.0006 19.0004 30.9996C18.7083 30.9998 18.4306 30.8723 18.2405 30.6506L12.2405 23.6507C11.9179 23.2774 11.9179 22.7239 12.2405 22.3507L18.2405 15.3508C18.4696 15.0687 18.8337 14.9331 19.1914 14.9966C19.5492 15.0602 19.8444 15.3128 19.9624 15.6565C20.0804 16.0002 20.0027 16.3808 19.7594 16.6507L14.8755 22.3507C14.5554 22.7249 14.5554 23.2764 14.8755 23.6507L19.7594 29.3506C20.1176 29.7695 20.0693 30.3992 19.6514 30.7586Z" fill="#E82C0C"/>
<path d="M39.2771 14.0468C38.1944 12.8067 36.3146 12.6709 35.0647 13.7423C33.8149 14.8138 33.662 16.6923 34.7222 17.9518L39.0491 22.9997L34.7222 28.0476C33.9863 28.8564 33.7488 30.0015 34.1023 31.0362C34.4557 32.0709 35.3441 32.8313 36.4209 33.021C37.4978 33.2106 38.5925 32.7993 39.2781 31.9476L45.278 24.9477C46.2488 23.827 46.2488 22.1634 45.278 21.0427L39.2771 14.0468ZM43.76 23.6467L37.7601 30.6466C37.531 30.9287 37.1669 31.0642 36.8091 31.0007C36.4513 30.9372 36.1562 30.6846 36.0381 30.3409C35.9201 29.9972 35.9978 29.6165 36.2411 29.3466L41.1251 23.6467C41.4452 23.2725 41.4452 22.7209 41.1251 22.3467L36.2411 16.6468C35.9071 16.2256 35.9658 15.6156 36.3742 15.2659C36.7825 14.9162 37.3943 14.9519 37.7591 15.3468L43.759 22.3467C44.0843 22.7204 44.0847 23.2765 43.76 23.6507V23.6467Z" fill="#E82C0C"/>
<path d="M29.4923 11.0408C27.8585 10.7693 26.3138 11.8731 26.0414 13.5068L23.0414 31.5065C22.8512 32.5699 23.2475 33.6535 24.0788 34.3433C24.9102 35.0332 26.0482 35.2228 27.0583 34.8397C28.0683 34.4567 28.7945 33.5601 28.9594 32.4925L31.9593 14.4928C32.09 13.7079 31.9035 12.9032 31.4408 12.2558C30.9782 11.6084 30.2773 11.1714 29.4923 11.0408ZM26.9864 32.1635C26.9363 32.5238 26.6946 32.8285 26.3551 32.9592C26.0156 33.0898 25.6319 33.0258 25.3532 32.792C25.0745 32.5583 24.9448 32.1916 25.0144 31.8345L28.0144 13.8348C28.1052 13.2904 28.6199 12.9225 29.1643 13.0128C29.426 13.0564 29.6596 13.2022 29.8138 13.418C29.9679 13.6339 30.03 13.9021 29.9863 14.1638L26.9864 32.1635Z" fill="#E82C0C"/>
</svg>
