<svg width="40" height="39" viewBox="0 0 40 39" fill="none" xmlns="http://www.w3.org/2000/svg">
<path d="M36.6667 2.66675H3.33339C2.96542 2.66675 2.66675 2.96542 2.66675 3.33339V24.6667C2.66675 25.0347 2.96542 25.3334 3.33339 25.3334H36.6667C37.0347 25.3334 37.3334 25.0347 37.3334 24.6667V3.33339C37.3334 2.96542 37.0347 2.66675 36.6667 2.66675ZM36 24H4.00003V4.00003H36V24Z" fill="#673AB7"/>
<path d="M22 26.6667H18C17.632 26.6667 17.3334 26.9654 17.3334 27.3334C17.3334 27.7014 17.632 28 18 28H22C22.368 28 22.6667 27.7014 22.6667 27.3334C22.6667 26.9654 22.368 26.6667 22 26.6667Z" fill="#673AB7"/>
<path d="M37.3327 0H2.66734C1.19664 0 0 1.19672 0 2.66734V24.6666C0 25.0346 0.298672 25.3333 0.666641 25.3333H39.3333C39.7013 25.3333 39.9999 25.0346 39.9999 24.6666V2.66734C40 1.19672 38.8034 0 37.3327 0ZM38.6666 24H1.33336V2.66734C1.33336 1.93133 1.93203 1.33336 2.66734 1.33336H37.3327C38.068 1.33336 38.6666 1.93133 38.6666 2.66734V24Z" fill="#673AB7"/>
<path d="M39.3334 24H0.666641C0.298672 24 0 24.2987 0 24.6666V27.9993C0 29.47 1.19664 30.6666 2.66734 30.6666H37.3327C38.8034 30.6666 40 29.47 40 27.9993V24.6666C40 24.2987 39.7013 24 39.3334 24ZM38.6666 27.9994C38.6666 28.7354 38.068 29.3334 37.3327 29.3334H2.66734C1.93203 29.3334 1.33336 28.7354 1.33336 27.9994V25.3334H38.6667V27.9994H38.6666Z" fill="#673AB7"/>
<path d="M28.6667 34.6667H11.3334C10.2307 34.6667 9.33337 35.5641 9.33337 36.6667C9.33337 37.7694 10.2307 38.6667 11.3334 38.6667H28.6667C29.7694 38.6667 30.6667 37.7694 30.6667 36.6667C30.6667 35.5641 29.7693 34.6667 28.6667 34.6667ZM28.6667 37.3334H11.3334C10.9654 37.3334 10.6667 37.0341 10.6667 36.6667C10.6667 36.2994 10.9654 36.0001 11.3334 36.0001H28.6667C29.0347 36.0001 29.3334 36.2994 29.3334 36.6667C29.3334 37.0341 29.0347 37.3334 28.6667 37.3334Z" fill="#673AB7"/>
<path d="M27.3334 34.6667C25.1214 34.6667 24 33.0967 24 30.0001C24 29.6321 23.7014 29.3334 23.3334 29.3334H16.6668C16.2988 29.3334 16.0001 29.6321 16.0001 30.0001C16.0001 33.0967 14.8788 34.6667 12.6668 34.6667C12.2988 34.6667 12.0001 34.9654 12.0001 35.3334C12.0001 35.7013 12.2988 36 12.6668 36H27.3334C27.7014 36 28 35.7013 28 35.3334C28 34.9654 27.7014 34.6667 27.3334 34.6667ZM15.914 34.6667C16.7347 33.7574 17.218 32.4034 17.3154 30.6667H22.6854C22.782 32.4034 23.2654 33.7574 24.0867 34.6667H15.914Z" fill="#673AB7"/>
<path d="M31.856 19.6427L30.2467 18.0334L31.142 17.1381C31.3081 16.972 31.3747 16.7307 31.3173 16.5034C31.26 16.276 31.0873 16.096 30.8627 16.0281L24.196 14.0281C23.9607 13.9574 23.7067 14.022 23.5334 14.1954C23.3594 14.3688 23.2954 14.6234 23.366 14.8581L25.366 21.5247C25.4334 21.75 25.614 21.9227 25.8413 21.98C26.068 22.036 26.31 21.9706 26.476 21.8047L27.4187 20.8613L29.028 22.4713C29.1527 22.5967 29.3227 22.6667 29.4993 22.6667C29.6759 22.6667 29.8459 22.5967 29.9706 22.4713L31.8559 20.5853C32.1166 20.3247 32.1166 19.9034 31.856 19.6427ZM29.4993 21.0574L28.034 19.5913C27.864 19.4213 27.6413 19.3367 27.4187 19.3367C27.1953 19.3367 26.9727 19.422 26.8034 19.5906L26.322 20.072L24.9987 15.6606L29.41 16.984L28.894 17.5C28.752 17.6427 28.674 17.832 28.674 18.0334C28.674 18.2354 28.7527 18.426 28.8953 18.5674L30.442 20.114L29.4993 21.0574Z" fill="#673AB7"/>
<path d="M28 5.33337H9.33339C8.96542 5.33337 8.66675 5.63205 8.66675 6.00001V9.33337C8.66675 9.70134 8.96542 10 9.33339 10H28C28.368 10 28.6667 9.70134 28.6667 9.33337V6.00001C28.6667 5.63205 28.368 5.33337 28 5.33337ZM27.3334 8.66673H10V6.66673H27.3334V8.66673Z" fill="#673AB7"/>
<path d="M17.3334 12.6667H12C11.632 12.6667 11.3334 12.9654 11.3334 13.3334V16C11.3334 16.368 11.632 16.6667 12 16.6667H17.3334C17.7013 16.6667 18 16.368 18 16V13.3334C18 12.9654 17.7013 12.6667 17.3334 12.6667ZM16.6667 15.3334H12.6667V14H16.6667V15.3334Z" fill="#673AB7"/>
<path d="M28 5.33337H9.33339C8.96542 5.33337 8.66675 5.63205 8.66675 6.00001V18.6667C8.66675 19.0346 8.96542 19.3333 9.33339 19.3333H25.2041C25.4154 19.3333 25.6134 19.234 25.7388 19.0646C25.8648 18.8953 25.9035 18.6767 25.8428 18.4746L24.9988 15.6606L27.8088 16.504C28.0108 16.5647 28.2295 16.526 28.3981 16.4C28.5674 16.2747 28.6667 16.076 28.6667 15.8653V6.00001C28.6667 5.63205 28.368 5.33337 28 5.33337ZM27.3334 14.9694L24.1953 14.0281C23.96 13.9574 23.706 14.022 23.5327 14.1954C23.3587 14.3694 23.2947 14.6234 23.3653 14.8588L24.308 18.0001H10V6.66673H27.3334V14.9694Z" fill="#673AB7"/>
</svg>
