<svg width="65" height="54" viewBox="0 0 65 54" fill="none" xmlns="http://www.w3.org/2000/svg">
<path d="M41.3864 44.7532C40.786 44.6148 40.1865 44.9897 40.0481 45.5903L38.7563 51.1993H2.51871L5.93525 36.3654H33.5423C34.1588 36.3654 34.6585 35.8656 34.6585 35.2492C34.6585 34.6327 34.1588 34.133 33.5423 34.133H5.93525L2.51871 19.2991H38.7564L40.4017 26.4429C40.5402 27.0437 41.1393 27.4186 41.74 27.2801C42.3408 27.1417 42.7156 26.5425 42.5772 25.9418L40.7902 18.1827L44.6632 1.36685C44.7395 1.03541 44.6605 0.687446 44.4489 0.421189C44.2372 0.154932 43.9156 0 43.5755 0H5.04688C4.52687 0 4.07592 0.358978 3.95908 0.865744L0.0284847 17.9324C-0.00946694 18.0971 -0.00946694 18.2686 0.0284847 18.4333L3.90149 35.2492L0.0284847 52.065C-0.0478651 52.3965 0.0311636 52.7444 0.2428 53.0107C0.454436 53.277 0.776058 53.4319 1.11613 53.4319H39.6446C40.1647 53.4319 40.6156 53.0729 40.7324 52.5662L42.2237 46.0916C42.362 45.4908 41.9872 44.8916 41.3864 44.7532ZM5.93525 2.23275H42.173L38.7564 17.0666H2.51871L5.93525 2.23275Z" fill="#E82C0C"/>
<path d="M9.37575 8.08719H28.5739C29.1904 8.08719 29.6901 7.58741 29.6901 6.97096C29.6901 6.35451 29.1904 5.85474 28.5739 5.85474H9.37575C8.75929 5.85474 8.25952 6.35451 8.25952 6.97096C8.25952 7.58741 8.75929 8.08719 9.37575 8.08719Z" fill="#E82C0C"/>
<path d="M7.36671 13.4447H26.5649C27.1813 13.4447 27.6811 12.9449 27.6811 12.3285C27.6811 11.712 27.1813 11.2123 26.5649 11.2123H7.36671C6.75026 11.2123 6.25049 11.712 6.25049 12.3285C6.25049 12.9449 6.75026 13.4447 7.36671 13.4447Z" fill="#E82C0C"/>
<path d="M29.6901 41.1035C29.6901 40.4871 29.1904 39.9873 28.5739 39.9873H9.37575C8.75929 39.9873 8.25952 40.4871 8.25952 41.1035C8.25952 41.72 8.75929 42.2197 9.37575 42.2197H28.5739C29.1904 42.2197 29.6901 41.72 29.6901 41.1035Z" fill="#E82C0C"/>
<path d="M7.36671 45.345C6.75026 45.345 6.25049 45.8447 6.25049 46.4612C6.25049 47.0777 6.75026 47.5774 7.36671 47.5774H26.5649C27.1813 47.5774 27.6811 47.0777 27.6811 46.4612C27.6811 45.8447 27.1813 45.345 26.5649 45.345H7.36671Z" fill="#E82C0C"/>
<path d="M27.681 24.0372C27.681 23.4208 27.1812 22.921 26.5647 22.921H7.36671C6.75026 22.921 6.25049 23.4208 6.25049 24.0372C6.25049 24.6537 6.75026 25.1535 7.36671 25.1535H26.5649C27.1812 25.1535 27.681 24.6537 27.681 24.0372Z" fill="#E82C0C"/>
<path d="M9.37575 30.511H28.5739C29.1904 30.511 29.6901 30.0112 29.6901 29.3948C29.6901 28.7783 29.1904 28.2786 28.5739 28.2786H9.37575C8.75929 28.2786 8.25952 28.7783 8.25952 29.3948C8.25952 30.0112 8.75929 30.511 9.37575 30.511Z" fill="#E82C0C"/>
<path d="M32.1671 9.14856C32.2454 9.53999 32.5268 9.85982 32.905 9.98737C33.0217 10.0267 33.1419 10.0459 33.2615 10.0459C33.5295 10.0459 33.7931 9.94927 34.0001 9.76665L37.7951 6.41813C38.2574 6.01033 38.3014 5.30488 37.8935 4.84261C37.4857 4.3805 36.7804 4.33629 36.318 4.74424L33.9761 6.81059L33.9098 6.4784C33.7888 5.87401 33.2015 5.48184 32.5962 5.60284C31.9916 5.72384 31.5998 6.31186 31.7206 6.91641L32.1671 9.14856Z" fill="#E82C0C"/>
<path d="M33.318 27.3681C33.3731 27.3681 33.4284 27.3641 33.4838 27.3558C33.8785 27.2965 34.2117 27.0309 34.3573 26.6592L36.2044 21.9473C36.4294 21.3734 36.1465 20.7257 35.5726 20.5007C34.9986 20.2753 34.351 20.5585 34.126 21.1324L32.9861 24.0403L32.7752 23.7751C32.3917 23.2926 31.6895 23.2122 31.2068 23.5959C30.7243 23.9794 30.644 24.6816 31.0276 25.1642L32.4442 26.9465C32.6578 27.2151 32.9807 27.3681 33.318 27.3681Z" fill="#E82C0C"/>
<path d="M33.44 32.7034C33.6535 32.9721 33.9764 33.1251 34.3136 33.1251C34.3687 33.1251 34.424 33.1211 34.4794 33.1127C34.8741 33.0535 35.2073 32.7878 35.3529 32.4162L37.2 27.7042C37.4251 27.1304 37.1421 26.4826 36.5682 26.2576C35.9941 26.0323 35.3466 26.3155 35.1216 26.8894L33.9817 29.7972L33.7708 29.532C33.3873 29.0495 32.6853 28.9691 32.2024 29.3528C31.7199 29.7364 31.6396 30.4385 32.0233 30.9212L33.44 32.7034Z" fill="#E82C0C"/>
<path d="M64.6978 20.8119L59.0064 14.7449C58.8039 14.5289 58.5239 14.4024 58.2281 14.3929C57.9307 14.3846 57.6446 14.492 57.4287 14.6944L36.1006 34.7021C35.9638 34.8304 35.8616 34.991 35.8034 35.1693L33.1137 43.3954C32.9869 43.783 33.0816 44.2086 33.3606 44.506C33.5745 44.7339 33.8704 44.8586 34.1747 44.8586C34.2674 44.8586 34.3609 44.847 34.4532 44.8233L42.8343 42.6641C43.0158 42.6173 43.1827 42.5255 43.3194 42.3972L64.6475 22.3895C65.097 21.9679 65.1196 21.2616 64.6978 20.8119ZM35.8686 42.1533L37.3396 37.6543L40.4522 40.9723L35.8686 42.1533ZM42.6061 40.0054L38.4421 35.5665L58.142 17.0863L62.3062 21.5251L42.6061 40.0054Z" fill="#E82C0C"/>
</svg>
