<svg width="60" height="60" viewBox="0 0 60 60" fill="none" xmlns="http://www.w3.org/2000/svg">
<path d="M49 0H11C8.24 0.00325 6.00325 2.24 6 5V32C6.00325 34.76 8.24 36.9967 11 37H24.674L23.246 42H20V44H40V42H36.754L35.326 37H49C51.76 36.9967 53.9967 34.76 54 32V5C53.9967 2.24 51.76 0.00325 49 0ZM25.326 42L26.754 37H33.246L34.674 42H25.326ZM52 32C52 33.6569 50.6569 35 49 35H11C9.34312 35 8 33.6569 8 32V30H52V32ZM52 28H8V5C8 3.34312 9.34312 2 11 2H49C50.6569 2 52 3.34312 52 5V28Z" fill="#E82C0C"/>
<path d="M38 46H10C9.44775 46 9 46.4477 9 47V59C9 59.5522 9.44775 60 10 60H38C38.5522 60 39 59.5522 39 59V47C39 46.4477 38.5522 46 38 46ZM37 58H11V48H37V58Z" fill="#E82C0C"/>
<path d="M15 54H13V56H15V54Z" fill="#E82C0C"/>
<path d="M15 50H13V52H15V50Z" fill="#E82C0C"/>
<path d="M19 50H17V52H19V50Z" fill="#E82C0C"/>
<path d="M23 50H21V52H23V50Z" fill="#E82C0C"/>
<path d="M31 50H29V52H31V50Z" fill="#E82C0C"/>
<path d="M27 50H25V52H27V50Z" fill="#E82C0C"/>
<path d="M35 54H33V56H35V54Z" fill="#E82C0C"/>
<path d="M35 50H33V52H35V50Z" fill="#E82C0C"/>
<path d="M31 54H17V56H31V54Z" fill="#E82C0C"/>
<path d="M46 46C43.2386 46 41 48.2386 41 51V55C41 57.7614 43.2386 60 46 60C48.7614 60 51 57.7614 51 55V51C51 48.2386 48.7614 46 46 46ZM49 55C49 56.6569 47.6569 58 46 58C44.3431 58 43 56.6569 43 55V51C43 49.3431 44.3431 48 46 48C47.6569 48 49 49.3431 49 51V55Z" fill="#E82C0C"/>
<path d="M47 50H45V52H47V50Z" fill="#E82C0C"/>
<path d="M31.0341 8.74606L27.0304 22.738L28.9523 23.288L32.9561 9.29602L31.0341 8.74606Z" fill="#E82C0C"/>
<path d="M24.64 11.7681L23.36 10.2321L17.36 15.2321C16.9359 15.5858 16.8788 16.2163 17.2325 16.6406C17.2712 16.6868 17.3138 16.7296 17.36 16.7681L23.36 21.7681L24.64 20.2321L19.562 16.0001L24.64 11.7681Z" fill="#E82C0C"/>
<path d="M42.7675 15.3596C42.7289 15.3133 42.6862 15.2706 42.64 15.2321L36.64 10.2321L35.36 11.7681L40.438 16.0001L35.36 20.2321L36.64 21.7681L42.64 16.7681C43.0641 16.4143 43.1213 15.7838 42.7675 15.3596Z" fill="#E82C0C"/>
</svg>
