<svg width="40" height="33" viewBox="0 0 40 33" fill="none" xmlns="http://www.w3.org/2000/svg">
<path d="M38.0469 15.5823H36.875V16.7687H38.0469V15.5823Z" fill="#2196F3"/>
<path d="M38.0469 18.0469H36.875V25.4287H35.4702V26.6005H38.0469V18.0469Z" fill="#2196F3"/>
<path d="M6.40148 25.4287H3.125V20.9218H1.95312V26.6006H6.40148V25.4287Z" fill="#2196F3"/>
<path d="M0 0V6.33258V28.5537H7.39406L11.7723 32.9319L16.1505 28.5537H25.1672L27.7795 31.166C28.2748 31.6613 28.9279 31.9407 29.6187 31.9528C29.6345 31.9531 29.6501 31.9533 29.6659 31.9533C30.3467 31.9532 30.9816 31.6925 31.458 31.2161C32.0133 30.6607 32.2744 29.8873 32.1743 29.0942C32.151 28.9099 32.1078 28.7287 32.0464 28.5537H40V6.33258V0H0ZM15.8403 27.2064L11.7722 31.2746L8.92008 28.4224L16.9779 20.3645L19.83 23.2166L15.8403 27.2064ZM17.3223 27.3818L20.6587 24.0454L23.9951 27.3818H17.3223ZM30.6291 30.3874C30.3686 30.648 30.0168 30.7902 29.6392 30.7811C29.2537 30.7743 28.8874 30.6167 28.6081 30.3373L13.5505 15.2798L13.222 15.3698C13.1424 15.3916 13.0624 15.4107 12.9822 15.427C12.0995 15.6066 11.187 15.4538 10.4184 15.0151C10.139 14.8555 9.87859 14.6581 9.64555 14.4252C9.07969 13.8594 8.72711 13.1432 8.61008 12.3878C8.55688 12.0445 8.55234 11.693 8.59867 11.3439L10.9027 13.648L13.3935 12.9727L14.069 10.4818L11.7648 8.17773C11.8156 8.17102 11.8665 8.16656 11.9173 8.16195C12.0063 8.15391 12.0954 8.14797 12.1843 8.14648C13.1623 8.12977 14.1259 8.50445 14.8461 9.22461C14.9143 9.29281 14.9791 9.36367 15.0413 9.43648C15.875 10.415 16.1441 11.7856 15.7264 13.0132C15.6545 13.1637 15.2573 13.9641 14.6779 14.5434L15.5066 15.3722C15.883 14.9957 16.19 14.5588 16.411 14.1986L21.2035 18.9911C21.2036 18.9912 21.2037 18.9913 21.2037 18.9913L30.5707 28.3583C30.576 28.3641 30.5814 28.3699 30.587 28.3757L30.5962 28.3852C30.8269 28.6233 30.9707 28.9183 31.0114 29.2409C31.0659 29.6721 30.9265 30.0901 30.6291 30.3874ZM38.8281 27.3818H31.2516L22.4466 18.5769L29.2702 11.7531L30.1413 12.6242L32.8709 9.89461L30.3 7.32359L27.5704 10.0532L28.4416 10.9245C26.2281 13.1388 22.7931 16.5747 21.6184 17.7486L16.9344 13.0646C17.3682 11.4116 16.8932 9.61437 15.6748 8.39594C15.62 8.34109 15.5638 8.28836 15.5068 8.23656C15.3842 8.125 15.2573 8.02 15.1259 7.92281C13.7789 6.92625 11.9998 6.68781 10.4141 7.33398L9.59687 7.66695L12.7603 10.8303L12.4384 12.0174L11.2513 12.3393L8.08781 9.17586L7.75484 9.99305C7.7318 10.0497 7.70984 10.1066 7.68898 10.1637C7.04344 11.9337 7.47656 13.9135 8.81688 15.2538C8.88859 15.3255 8.96219 15.3946 9.03766 15.4612C9.10563 15.5211 9.17531 15.5786 9.24617 15.6343C9.26695 15.6506 9.28797 15.6667 9.30898 15.6827C9.41422 15.7627 9.52211 15.8384 9.63289 15.9091C9.66156 15.9273 9.69055 15.9449 9.71953 15.9626C9.73383 15.9713 9.74797 15.9804 9.76242 15.989C9.77203 15.9947 9.7818 16 9.79148 16.0057C9.84336 16.036 9.8957 16.0652 9.94859 16.0936C10.9312 16.6207 12.0795 16.8009 13.1933 16.58L16.1493 19.536L8.30344 27.3818H1.17188V6.33258H38.8281V27.3818ZM29.2277 10.0532L30.3001 8.98078L31.2138 9.89453L30.1413 10.967L29.2277 10.0532ZM38.8281 5.1607H1.17188V1.17188H38.8281V5.1607Z" fill="#2196F3"/>
<path d="M3.58726 4.76751C4.44647 4.76751 5.14546 4.06853 5.14546 3.20931C5.14546 2.35017 4.44647 1.65118 3.58726 1.65118C2.72804 1.65118 2.02905 2.35017 2.02905 3.20931C2.02905 4.06853 2.72804 4.76751 3.58726 4.76751ZM3.58726 2.82314C3.8003 2.82314 3.97358 2.99642 3.97358 3.20939C3.97358 3.42236 3.8003 3.59572 3.58726 3.59572C3.37421 3.59572 3.20093 3.42236 3.20093 3.20939C3.20093 2.99634 3.37421 2.82314 3.58726 2.82314Z" fill="#2196F3"/>
<path d="M8.07957 4.76751C8.93878 4.76751 9.63777 4.06853 9.63777 3.20931C9.63785 2.35017 8.93878 1.65118 8.07957 1.65118C7.22035 1.65118 6.52136 2.35017 6.52136 3.20931C6.52136 4.06853 7.22035 4.76751 8.07957 4.76751ZM8.07957 2.82314C8.29261 2.82314 8.46589 2.99642 8.46589 3.20939C8.46597 3.42236 8.29269 3.59572 8.07957 3.59572C7.86652 3.59572 7.69324 3.42236 7.69324 3.20939C7.69324 2.99634 7.86652 2.82314 8.07957 2.82314Z" fill="#2196F3"/>
<path d="M12.5718 4.76751C13.431 4.76751 14.13 4.06853 14.13 3.20931C14.13 2.35017 13.431 1.65118 12.5718 1.65118C11.7125 1.65118 11.0135 2.35017 11.0135 3.20931C11.0135 4.06853 11.7125 4.76751 12.5718 4.76751ZM12.5718 2.82314C12.7848 2.82314 12.9581 2.99642 12.9581 3.20939C12.9582 3.42236 12.7848 3.59572 12.5718 3.59572C12.3587 3.59572 12.1854 3.42236 12.1854 3.20939C12.1854 2.99634 12.3587 2.82314 12.5718 2.82314Z" fill="#2196F3"/>
<path d="M25.5353 4.76751H35.5818C36.441 4.76751 37.14 4.06853 37.14 3.20931C37.14 2.97243 37.0881 2.7447 36.9856 2.53275C36.7273 1.99728 36.1763 1.65118 35.5817 1.65118H25.5353C24.676 1.65118 23.9771 2.35017 23.9771 3.20931C23.9771 4.06853 24.676 4.76751 25.5353 4.76751ZM25.5353 2.82314H35.5818C35.7316 2.82314 35.8651 2.90697 35.9303 3.04228C35.9554 3.09423 35.9681 3.15048 35.9681 3.20947C35.9681 3.42236 35.7948 3.59572 35.5817 3.59572H25.5353C25.3222 3.59572 25.1489 3.42236 25.1489 3.20939C25.1489 2.99634 25.3223 2.82314 25.5353 2.82314Z" fill="#2196F3"/>
<path d="M14.6881 25.5945L15.5166 26.4232L16.2505 25.6895L15.422 24.8608L14.6881 25.5945Z" fill="#2196F3"/>
<path d="M11.7722 28.5125L11.3844 28.1246L10.5558 28.9533L11.7722 30.1697L14.4434 27.4985L13.6148 26.6698L11.7722 28.5125Z" fill="#2196F3"/>
</svg>
