<svg width="40" height="40" viewBox="0 0 40 40" fill="none" xmlns="http://www.w3.org/2000/svg">
<path d="M20.0104 20.0208C19.6424 20.0208 19.3438 19.7228 19.3438 19.3542V15.3542C19.3438 14.9855 19.6424 14.6875 20.0104 14.6875C20.3784 14.6875 20.6771 14.9855 20.6771 15.3542V19.3542C20.6771 19.7228 20.3784 20.0208 20.0104 20.0208Z" fill="#9C27B0"/>
<path d="M22.0104 18.0208H18.0104C17.6424 18.0208 17.3438 17.7228 17.3438 17.3542C17.3438 16.9855 17.6424 16.6875 18.0104 16.6875H22.0104C22.3784 16.6875 22.6771 16.9855 22.6771 17.3542C22.6771 17.7228 22.3784 18.0208 22.0104 18.0208Z" fill="#9C27B0"/>
<path d="M37 40H3C1.346 40 0 38.654 0 37V3C0 1.346 1.346 0 3 0H37C38.654 0 40 1.346 40 3V37C40 38.654 38.654 40 37 40ZM3 1.33333C2.08133 1.33333 1.33333 2.08067 1.33333 3V37C1.33333 37.9193 2.08133 38.6667 3 38.6667H37C37.9193 38.6667 38.6667 37.9193 38.6667 37V3C38.6667 2.08067 37.9187 1.33333 37 1.33333H3Z" fill="#9C27B0"/>
<path d="M5.99996 6.66666H3.33329C2.96529 6.66666 2.66663 6.36866 2.66663 5.99999V3.33332C2.66663 2.96466 2.96529 2.66666 3.33329 2.66666H5.99996C6.36796 2.66666 6.66663 2.96466 6.66663 3.33332V5.99999C6.66663 6.36866 6.36796 6.66666 5.99996 6.66666ZM3.99996 5.33332H5.33329V3.99999H3.99996V5.33332Z" fill="#9C27B0"/>
<path d="M11.3333 6.66666H8.66667C8.29867 6.66666 8 6.36866 8 5.99999V3.33332C8 2.96466 8.29867 2.66666 8.66667 2.66666H11.3333C11.7013 2.66666 12 2.96466 12 3.33332V5.99999C12 6.36866 11.7013 6.66666 11.3333 6.66666ZM9.33333 5.33332H10.6667V3.99999H9.33333V5.33332Z" fill="#9C27B0"/>
<path d="M16.6667 6.66666H14C13.632 6.66666 13.3334 6.36866 13.3334 5.99999V3.33332C13.3334 2.96466 13.632 2.66666 14 2.66666H16.6667C17.0347 2.66666 17.3334 2.96466 17.3334 3.33332V5.99999C17.3334 6.36866 17.0347 6.66666 16.6667 6.66666ZM14.6667 5.33332H16V3.99999H14.6667V5.33332Z" fill="#9C27B0"/>
<path d="M39.3333 9.33333H0.666667C0.298667 9.33333 0 9.03533 0 8.66667V3C0 1.346 1.346 0 3 0H37C38.654 0 40 1.346 40 3V8.66667C40 9.03533 39.7013 9.33333 39.3333 9.33333ZM1.33333 8H38.6667V3C38.6667 2.08067 37.9187 1.33333 37 1.33333H3C2.08133 1.33333 1.33333 2.08067 1.33333 3V8Z" fill="#9C27B0"/>
<path d="M5.00004 23.3333H4.00004C3.63204 23.3333 3.33337 23.0353 3.33337 22.6667V21.6667C3.33337 21.298 3.63204 21 4.00004 21C4.36804 21 4.66671 21.298 4.66671 21.6667V22H5.00004C5.36804 22 5.66671 22.298 5.66671 22.6667C5.66671 23.0353 5.36804 23.3333 5.00004 23.3333Z" fill="#9C27B0"/>
<path d="M4.00004 19.1813C3.63204 19.1813 3.33337 18.8833 3.33337 18.5147V16.1507C3.33337 15.782 3.63204 15.484 4.00004 15.484C4.36804 15.484 4.66671 15.782 4.66671 16.1507V18.5147C4.66671 18.8833 4.36804 19.1813 4.00004 19.1813Z" fill="#9C27B0"/>
<path d="M4.00004 13.6666C3.63204 13.6666 3.33337 13.3686 3.33337 13V12C3.33337 11.6313 3.63204 11.3333 4.00004 11.3333H5.00004C5.36804 11.3333 5.66671 11.6313 5.66671 12C5.66671 12.3686 5.36804 12.6666 5.00004 12.6666H4.66671V13C4.66671 13.3686 4.36804 13.6666 4.00004 13.6666Z" fill="#9C27B0"/>
<path d="M32.3914 12.6666H30.4347C30.0667 12.6666 29.768 12.3686 29.768 12C29.768 11.6313 30.0667 11.3333 30.4347 11.3333H32.3914C32.7594 11.3333 33.058 11.6313 33.058 12C33.058 12.3686 32.7594 12.6666 32.3914 12.6666ZM27.826 12.6666H25.8694C25.5014 12.6666 25.2027 12.3686 25.2027 12C25.2027 11.6313 25.5014 11.3333 25.8694 11.3333H27.826C28.194 11.3333 28.4927 11.6313 28.4927 12C28.4927 12.3686 28.1947 12.6666 27.826 12.6666ZM23.2607 12.6666H21.304C20.936 12.6666 20.6374 12.3686 20.6374 12C20.6374 11.6313 20.936 11.3333 21.304 11.3333H23.2607C23.6287 11.3333 23.9274 11.6313 23.9274 12C23.9274 12.3686 23.6287 12.6666 23.2607 12.6666ZM18.6954 12.6666H16.7387C16.3707 12.6666 16.072 12.3686 16.072 12C16.072 11.6313 16.3707 11.3333 16.7387 11.3333H18.6954C19.0634 11.3333 19.362 11.6313 19.362 12C19.362 12.3686 19.064 12.6666 18.6954 12.6666ZM14.1307 12.6666H12.174C11.806 12.6666 11.5073 12.3686 11.5073 12C11.5073 11.6313 11.806 11.3333 12.174 11.3333H14.1307C14.4987 11.3333 14.7974 11.6313 14.7974 12C14.7974 12.3686 14.4987 12.6666 14.1307 12.6666ZM9.56535 12.6666H7.60868C7.24068 12.6666 6.94202 12.3686 6.94202 12C6.94202 11.6313 7.24068 11.3333 7.60868 11.3333H9.56535C9.93335 11.3333 10.232 11.6313 10.232 12C10.232 12.3686 9.93335 12.6666 9.56535 12.6666Z" fill="#9C27B0"/>
<path d="M36 13.6666C35.632 13.6666 35.3334 13.3686 35.3334 13V12.6666H35C34.632 12.6666 34.3334 12.3686 34.3334 12C34.3334 11.6313 34.632 11.3333 35 11.3333H36C36.368 11.3333 36.6667 11.6313 36.6667 12V13C36.6667 13.3686 36.368 13.6666 36 13.6666Z" fill="#9C27B0"/>
<path d="M36 19.182C35.632 19.182 35.3334 18.884 35.3334 18.5153V16.1513C35.3334 15.7827 35.632 15.4847 36 15.4847C36.368 15.4847 36.6667 15.7827 36.6667 16.1513V18.5153C36.6667 18.884 36.368 19.182 36 19.182Z" fill="#9C27B0"/>
<path d="M36 23.3333H35C34.632 23.3333 34.3334 23.0353 34.3334 22.6667C34.3334 22.298 34.632 22 35 22H35.3334V21.6667C35.3334 21.298 35.632 21 36 21C36.368 21 36.6667 21.298 36.6667 21.6667V22.6667C36.6667 23.0353 36.368 23.3333 36 23.3333Z" fill="#9C27B0"/>
<path d="M32.3914 23.3333H30.4347C30.0667 23.3333 29.768 23.0353 29.768 22.6667C29.768 22.298 30.0667 22 30.4347 22H32.3914C32.7594 22 33.058 22.298 33.058 22.6667C33.058 23.0353 32.7594 23.3333 32.3914 23.3333ZM27.826 23.3333H25.8694C25.5014 23.3333 25.2027 23.0353 25.2027 22.6667C25.2027 22.298 25.5014 22 25.8694 22H27.826C28.194 22 28.4927 22.298 28.4927 22.6667C28.4927 23.0353 28.1947 23.3333 27.826 23.3333ZM23.2607 23.3333H21.304C20.936 23.3333 20.6374 23.0353 20.6374 22.6667C20.6374 22.298 20.936 22 21.304 22H23.2607C23.6287 22 23.9274 22.298 23.9274 22.6667C23.9274 23.0353 23.6287 23.3333 23.2607 23.3333ZM18.6954 23.3333H16.7387C16.3707 23.3333 16.072 23.0353 16.072 22.6667C16.072 22.298 16.3707 22 16.7387 22H18.6954C19.0634 22 19.362 22.298 19.362 22.6667C19.362 23.0353 19.064 23.3333 18.6954 23.3333ZM14.1307 23.3333H12.174C11.806 23.3333 11.5073 23.0353 11.5073 22.6667C11.5073 22.298 11.806 22 12.174 22H14.1307C14.4987 22 14.7974 22.298 14.7974 22.6667C14.7974 23.0353 14.4987 23.3333 14.1307 23.3333ZM9.56535 23.3333H7.60868C7.24068 23.3333 6.94202 23.0353 6.94202 22.6667C6.94202 22.298 7.24068 22 7.60868 22H9.56535C9.93335 22 10.232 22.298 10.232 22.6667C10.232 23.0353 9.93335 23.3333 9.56535 23.3333Z" fill="#9C27B0"/>
<path d="M36 36.6666H4.00004C3.63204 36.6666 3.33337 36.3686 3.33337 36V26C3.33337 25.6313 3.63204 25.3333 4.00004 25.3333H36C36.368 25.3333 36.6667 25.6313 36.6667 26V36C36.6667 36.3686 36.368 36.6666 36 36.6666ZM4.66671 35.3333H35.3334V26.6666H4.66671V35.3333Z" fill="#9C27B0"/>
</svg>
