<svg width="40" height="40" viewBox="0 0 40 40" fill="none" xmlns="http://www.w3.org/2000/svg">
<path d="M39.3333 34.6667H38.6667V10.6667C38.6667 9.19392 37.4728 8 36 8H32V2.66667C32 1.19392 30.8061 0 29.3333 0H10.6667C9.19392 0 8 1.19392 8 2.66667V8H4C2.52725 8 1.33333 9.19392 1.33333 10.6667V34.6667H0.666667C0.2985 34.6667 0 34.9652 0 35.3333V37.3333C0 38.8061 1.19392 40 2.66667 40H37.3333C38.8061 40 40 38.8061 40 37.3333V35.3333C40 34.9652 39.7015 34.6667 39.3333 34.6667ZM9.33333 2.66667C9.33333 1.93025 9.93025 1.33333 10.6667 1.33333H29.3333C30.0698 1.33333 30.6667 1.93025 30.6667 2.66667V5.33333H9.33333V2.66667ZM9.33333 6.66667H30.6667V26C30.6667 26.7364 30.0698 27.3333 29.3333 27.3333H10.6667C9.93025 27.3333 9.33333 26.7364 9.33333 26V6.66667ZM10.6667 28.6667H29.3333C30.8061 28.6667 32 27.4728 32 26V12H34.6667V30.6667H5.33333V12H8V26C8 27.4728 9.19392 28.6667 10.6667 28.6667ZM2.66667 10.6667C2.66667 9.93025 3.26358 9.33333 4 9.33333H8V10.6667H4.66667C4.2985 10.6667 4 10.9652 4 11.3333V31.3333C4 31.7015 4.2985 32 4.66667 32H35.3333C35.7015 32 36 31.7015 36 31.3333V11.3333C36 10.9652 35.7015 10.6667 35.3333 10.6667H32V9.33333H36C36.7364 9.33333 37.3333 9.93025 37.3333 10.6667V34.6667H26C25.8233 34.6665 25.6537 34.7366 25.5287 34.8613L24.3907 36H15.6093L14.4713 34.8613C14.3463 34.7366 14.1767 34.6665 14 34.6667H2.66667V10.6667ZM38.6667 37.3333C38.6667 38.0698 38.0698 38.6667 37.3333 38.6667H2.66667C1.93025 38.6667 1.33333 38.0698 1.33333 37.3333V36H13.724L14.862 37.138C14.987 37.263 15.1565 37.3333 15.3333 37.3333H24.6667C24.8435 37.3333 25.013 37.263 25.138 37.138L26.276 36H38.6667V37.3333Z" fill="#FF0000"/>
<path d="M20.6666 33.3334H19.3333V34.6667H20.6666V33.3334Z" fill="#FF0000"/>
<path d="M28.6666 21.3334H11.3333V22.6667H28.6666V21.3334Z" fill="#FF0000"/>
<path d="M27.3333 24H11.3333V25.3333H27.3333V24Z" fill="#FF0000"/>
<path d="M28.6666 18.6666H15.3333V20H28.6666V18.6666Z" fill="#FF0000"/>
<path d="M12 2.66663H10.6666V3.99996H12V2.66663Z" fill="#FF0000"/>
<path d="M14.6666 2.66663H13.3333V3.99996H14.6666V2.66663Z" fill="#FF0000"/>
<path d="M17.3333 2.66663H16V3.99996H17.3333V2.66663Z" fill="#FF0000"/>
<path d="M14 18.6666H12.6666V20H14V18.6666Z" fill="#FF0000"/>
<path d="M17.7334 11.2L16.9334 10.1333L14.2667 12.1333C13.9721 12.3542 13.9125 12.7721 14.1334 13.0666C14.1713 13.1171 14.2162 13.1621 14.2667 13.2L16.9334 15.2L17.7334 14.1333L15.778 12.6666L17.7334 11.2Z" fill="#FF0000"/>
<path d="M25.8666 12.2666C25.8287 12.2161 25.7838 12.1712 25.7333 12.1333L23.0666 10.1333L22.2666 11.2L24.2219 12.6666L22.2666 14.1333L23.0666 15.2L25.7333 13.2C26.0279 12.979 26.0875 12.5612 25.8666 12.2666Z" fill="#FF0000"/>
<path d="M20.715 9.08708L18.0476 15.753L19.2855 16.2483L21.9528 9.58242L20.715 9.08708Z" fill="#FF0000"/>
</svg>
