<svg width="40" height="39" viewBox="0 0 40 39" fill="none" xmlns="http://www.w3.org/2000/svg">
<path d="M38.125 0H1.875C0.839453 0 0 0.839453 0 1.875V29.375C0 29.7202 0.279844 30 0.625 30H14.8625L13.8625 35H12.5C12.1548 35 11.875 35.2798 11.875 35.625V37.5H10.625V38.75H29.375V37.5H28.125V35.625C28.125 35.2798 27.8452 35 27.5 35H26.1365L25.1365 30H39.375C39.7202 30 40 29.7202 40 29.375V1.875C40 0.839453 39.1605 0 38.125 0ZM25.625 36.25H26.875V37.5H13.125V36.25H14.375H25.625ZM15.1375 35L16.1366 30H23.8625L24.8625 35H15.1375ZM38.75 28.75H1.25V23.125H10H13.75H17.5H21.25H25H30H38.75V28.75ZM30 5.625H25C24.6548 5.625 24.375 5.90484 24.375 6.25V11.875H25.625V6.875H29.375V9.375H26.875V10.625H29.375V13.75H26.875V15H29.375V18.125H26.875V19.375H29.375V21.875H25.625V16.875H24.375V21.875H21.875V18.75C21.875 16.1994 24.9725 15.6388 25.1025 15.6163C25.1795 15.6034 25.2534 15.5762 25.3205 15.536C25.6166 15.3587 25.713 14.9748 25.5356 14.6788L19.9106 5.30375C19.8653 5.23766 19.8082 5.18055 19.7421 5.13523C19.4463 4.9325 19.0421 5.00789 18.8394 5.30375L13.2144 14.6788C13.1745 14.7453 13.1473 14.8188 13.1343 14.8953C13.0764 15.2356 13.3053 15.5584 13.6456 15.6163C13.7775 15.6388 16.875 16.1994 16.875 18.75V21.875H14.375V16.875H13.125V21.875H12.5V10.625H13.125V11.875H14.375V10C14.3752 9.91531 14.358 9.83148 14.3244 9.75375L12.4494 5.37875C12.3862 5.23141 12.2688 5.11398 12.1214 5.05078C11.8042 4.91469 11.4367 5.06156 11.3006 5.37875L9.42562 9.75375C9.39203 9.83148 9.37484 9.91531 9.375 10V21.875H4.375V4.375H35.625V21.875H30.625V6.25C30.625 5.90484 30.3452 5.625 30 5.625ZM18.125 20V19.375H20.625V20H18.125ZM20.625 21.25V21.875H18.125V21.25H20.625ZM18.0794 18.125C17.78 16.1375 16.0781 15.0625 14.7169 14.6031L18.75 7.88164V13.125H20V7.88164L24.0331 14.6031C22.6706 15.0594 20.97 16.1375 20.6706 18.125H18.0794ZM10.9465 9.375L11.875 7.20875L12.8035 9.375H10.9465ZM11.25 10.625V21.875H10.625V10.625H11.25ZM38.75 21.875H36.875V3.75C36.875 3.40484 36.5952 3.125 36.25 3.125H3.75C3.40484 3.125 3.125 3.40484 3.125 3.75V21.875H1.25V1.875C1.25 1.52984 1.52984 1.25 1.875 1.25H38.125C38.4702 1.25 38.75 1.52984 38.75 1.875V21.875Z" fill="#E91E63"/>
<path d="M20 23.75C18.9645 23.75 18.125 24.5895 18.125 25.625C18.125 26.6605 18.9645 27.5 20 27.5C21.0355 27.5 21.875 26.6605 21.875 25.625C21.875 24.5895 21.0355 23.75 20 23.75ZM20 26.25C19.6548 26.25 19.375 25.9702 19.375 25.625C19.375 25.2798 19.6548 25 20 25C20.3452 25 20.625 25.2798 20.625 25.625C20.625 25.9702 20.3452 26.25 20 26.25Z" fill="#E91E63"/>
</svg>
