<svg width="15" height="15" viewBox="0 0 15 15" fill="none" xmlns="http://www.w3.org/2000/svg">
<g clip-path="url(#clip0)">
<path d="M7.50317 8.94478L1.89146 3.33332C1.73732 3.17881 1.53122 3.09381 1.31146 3.09381C1.09159 3.09381 0.885609 3.17881 0.731219 3.33332L0.239756 3.82503C0.0851216 3.9793 -3.37473e-07 4.18552 -3.27867e-07 4.40527C-3.18262e-07 4.62503 0.0851216 4.831 0.239756 4.98539L6.92098 11.6667C7.07585 11.8217 7.2828 11.9066 7.5028 11.906C7.72378 11.9066 7.93049 11.8219 8.08549 11.6667L14.7602 4.99161C14.9149 4.83722 15 4.63125 15 4.41137C15 4.19161 14.9149 3.98564 14.7602 3.83113L14.2688 3.33954C13.9489 3.01966 13.4282 3.01966 13.1084 3.33954L7.50317 8.94478Z" fill="#FF0000"/>
</g>
<defs>
<clipPath id="clip0">
<rect width="15" height="15" fill="white" transform="translate(0 15) rotate(-90)"/>
</clipPath>
</defs>
</svg>
