<svg width="42" height="49" viewBox="0 0 42 49" fill="none" xmlns="http://www.w3.org/2000/svg">
<path d="M23.918 40.9389V37.2202C23.918 37.078 23.9245 36.9503 23.9361 36.8329H34.9631C35.9912 36.8329 36.8275 35.9962 36.8275 34.9679V30.7095C36.8275 29.7575 36.1103 28.9712 35.1881 28.8595V26.4999C35.1881 26.1878 35.164 25.9645 35.1465 25.8127C35.2635 25.6814 35.486 25.4573 35.7342 25.2073L35.7603 25.1809C36.5815 24.3538 37.7971 23.1392 38.9726 21.9647C39.5707 21.3672 40.1686 20.7697 40.7198 20.2182C41.9659 18.9709 41.9658 16.9415 40.7197 15.6941C40.1176 15.0917 39.3145 14.76 38.4582 14.76C37.6019 14.76 36.7989 15.0918 36.1968 15.6942L35.1879 16.7038V4.99437C35.1879 3.23013 33.7545 1.7949 31.9926 1.7949C31.4708 1.7949 30.9783 1.92144 30.5427 2.14416C30.1068 0.897163 28.9198 0 27.5265 0C25.8423 0 24.4591 1.30831 24.338 2.96148C23.9463 2.78957 23.5143 2.69359 23.0601 2.69359C21.3759 2.69359 19.9927 4.00304 19.8716 5.65765C19.4799 5.48593 19.0479 5.39004 18.5936 5.39004C16.8303 5.39004 15.3957 6.82413 15.3957 8.58684V12.3429C15.0066 12.1737 14.5778 12.0793 14.1273 12.0793C12.7329 12.0793 11.5449 12.9772 11.1084 14.225C10.6735 14.003 10.1819 13.8768 9.66107 13.8768C7.89769 13.8768 6.46312 15.3109 6.46312 17.0737V29.0728L5.45422 28.0631C4.85217 27.4607 4.04955 27.1289 3.19413 27.1289C2.3387 27.1289 1.53618 27.4608 0.934314 28.0631C-0.311438 29.3096 -0.311438 31.3379 0.934314 32.5845C1.48422 33.1348 2.08074 33.7309 2.67754 34.3272C3.85444 35.5032 5.07135 36.7192 5.89268 37.5464L5.90806 37.5619C6.16076 37.817 6.38701 38.0454 6.50524 38.1786C6.48748 38.3306 6.46322 38.5539 6.46322 38.8662V40.9389C5.54103 41.0504 4.8238 41.8368 4.8238 42.7889V47.0499C4.8238 48.0782 5.66003 48.9149 6.68804 48.9149H10.8541C11.3862 48.9149 11.8175 48.4835 11.8175 47.9514C11.8175 47.4193 11.3862 46.988 10.8541 46.988H6.7505V42.8509H23.6278V46.9879H19.4756C18.9436 46.9879 18.5122 47.4193 18.5122 47.9513C18.5122 48.4835 18.9436 48.9148 19.4756 48.9148H23.693C24.7195 48.9148 25.5546 48.0781 25.5546 47.0498V42.7888C25.5547 41.837 24.8386 41.0507 23.918 40.9389ZM34.9006 34.9059H25.1816C25.7181 34.2995 26.2553 33.4216 26.2553 31.7951V30.7715H34.9006V34.9059ZM17.3227 8.58684C17.3227 7.88661 17.8929 7.31702 18.5938 7.31702C19.2931 7.31702 19.8621 7.8867 19.8621 8.58684V12.5609C19.8621 13.0931 20.2935 13.5244 20.8256 13.5244C21.3576 13.5244 21.789 13.093 21.789 12.5609V5.89325C21.789 5.19149 22.3594 4.62057 23.0603 4.62057C23.7595 4.62057 24.3285 5.19149 24.3285 5.89325V12.5609C24.3285 13.0931 24.7599 13.5244 25.292 13.5244C25.824 13.5244 26.2554 13.093 26.2554 12.5609V3.19689C26.2554 2.49666 26.8258 1.92698 27.5267 1.92698C28.226 1.92698 28.795 2.49666 28.795 3.19689V12.5609C28.795 13.0931 29.2264 13.5244 29.7584 13.5244C30.2905 13.5244 30.7219 13.093 30.7219 12.5609V4.99437C30.7219 4.29271 31.2921 3.72178 31.993 3.72178C32.6924 3.72178 33.2614 4.29271 33.2614 4.99437V19.031C33.2614 19.5632 33.6928 19.9945 34.2248 19.9945C34.466 19.9945 34.686 19.9053 34.8551 19.7587C34.871 19.7455 34.8875 19.7307 34.9053 19.7129C34.9057 19.7126 34.906 19.7124 34.9063 19.712H34.9064L37.5601 17.0562C37.7981 16.818 38.1172 16.6868 38.4585 16.6868C38.7999 16.6868 39.1189 16.818 39.3568 17.0561C39.8526 17.5524 39.8526 18.3598 39.3569 18.8561C38.8062 19.4072 38.2086 20.0042 37.6109 20.6015C36.434 21.7774 35.2171 22.9933 34.3932 23.8232L34.367 23.8496C33.3882 24.8356 33.1251 25.1006 33.2302 26.0121C33.2448 26.1394 33.2615 26.2836 33.2615 26.4999V28.8445H26.2553V20.6686C26.2553 18.9044 24.822 17.4692 23.0602 17.4692C22.6048 17.4692 22.1718 17.5654 21.7795 17.7378C21.6588 16.0843 20.2767 14.7756 18.5938 14.7756C18.1422 14.7756 17.7125 14.8701 17.3227 15.0397V8.58684ZM4.03952 32.9642C3.4431 32.3682 2.84687 31.7724 2.29725 31.2224C1.80206 30.7269 1.80206 29.9208 2.29734 29.4251C2.53524 29.187 2.85375 29.0559 3.19413 29.0559C3.5346 29.0559 3.8532 29.1871 4.09119 29.4252L6.74391 32.0798C6.74715 32.0832 6.75049 32.0863 6.75384 32.0897C6.75384 32.0897 6.75384 32.0898 6.75393 32.0898L6.7547 32.0905C6.75498 32.0907 6.75518 32.091 6.75546 32.0912L6.75556 32.0913C6.84619 32.1792 6.94981 32.2459 7.06012 32.2912C7.1688 32.3359 7.28742 32.3613 7.41186 32.3632H7.41291C7.42208 32.3633 7.43106 32.3633 7.44022 32.3632H7.44127C7.56638 32.3613 7.68576 32.3356 7.79512 32.2903C7.90867 32.2433 8.01525 32.1737 8.10751 32.0814C8.20072 31.9882 8.27082 31.8808 8.31781 31.7662C8.36222 31.6585 8.38753 31.5409 8.38982 31.4177C8.38982 31.4175 8.38982 31.4174 8.38982 31.4174C8.38982 31.4171 8.38982 31.4168 8.38982 31.4166C8.38991 31.4104 8.38991 31.4042 8.38991 31.3979V17.0736C8.38991 16.3734 8.96017 15.8037 9.66107 15.8037C10.3603 15.8037 10.9294 16.3734 10.9294 17.0736V24.6402C10.9294 25.1723 11.3608 25.6036 11.8928 25.6036C12.4249 25.6036 12.8562 25.1722 12.8562 24.6402V15.2788C12.8562 14.577 13.4265 14.0062 14.1273 14.0062C14.8267 14.0062 15.3957 14.5771 15.3957 15.2788V19.7157V24.6402C15.3957 25.1723 15.8271 25.6036 16.3591 25.6036C16.8912 25.6036 17.3226 25.1722 17.3226 24.6402V19.7158V17.9725C17.3226 17.2722 17.8928 16.7026 18.5937 16.7026C19.293 16.7026 19.862 17.2722 19.862 17.9725V24.6403C19.862 25.1724 20.2934 25.6037 20.8255 25.6037C21.3575 25.6037 21.7889 25.1723 21.7889 24.6403V20.6687C21.7889 19.9671 22.3593 19.3962 23.0602 19.3962C23.7594 19.3962 24.3284 19.967 24.3284 20.6687V31.7951C24.3284 33.0565 23.9397 33.443 23.4017 33.9782C23.0209 34.3568 22.5841 34.7921 22.2986 35.4851C22.2949 35.4936 22.2915 35.5022 22.2881 35.5109C22.1084 35.9572 21.9912 36.5091 21.9912 37.2202V40.9239H8.38991V38.8662C8.38991 38.6503 8.40682 38.5066 8.42162 38.3797C8.5282 37.4691 8.26318 37.2015 7.27691 36.2059L7.26077 36.1895C6.436 35.3589 5.21775 34.1415 4.03952 32.9642Z" fill="#C4C4C4"/>
<path d="M15.1905 46.9879H15.185C14.653 46.9879 14.2244 47.4193 14.2244 47.9514C14.2244 48.4835 14.6584 48.9148 15.1905 48.9148C15.7225 48.9148 16.1539 48.4834 16.1539 47.9514C16.1539 47.4193 15.7226 46.9879 15.1905 46.9879Z" fill="#C4C4C4"/>
</svg>
