<svg width="40" height="51" viewBox="0 0 40 51" fill="none" xmlns="http://www.w3.org/2000/svg">
<path d="M4.9999 50.0044H34.9997C37.76 50.0017 39.9969 47.7648 40 45.0045V10.0044C39.9969 7.24408 37.76 5.00715 34.9997 5.00448H29.3498C28.8798 4.47653 28.2069 4.17326 27.5 4.17136H24.9309C24.5261 1.76353 22.4414 0 20 0C17.5582 0 15.4739 1.76353 15.0691 4.17136H12.5C11.7927 4.17326 11.1202 4.47653 10.6498 5.00448H4.9999C2.2396 5.00715 0.00267027 7.24408 0 10.0044V45.0045C0.00267027 47.7648 2.2396 50.0017 4.9999 50.0044ZM34.9997 37.5044H29.1667C28.2462 37.5044 27.5 38.2506 27.5 39.1711V45.0045H5.83341C5.37298 45.0045 4.9999 44.6314 4.9999 44.171V10.8379C4.9999 10.3775 5.37298 10.0044 5.83341 10.0044H9.99981C9.99981 11.3853 11.1194 12.5045 12.5 12.5045H27.5C28.8806 12.5045 29.9998 11.3853 29.9998 10.0044H34.1666C34.6266 10.0044 34.9997 10.3775 34.9997 10.8379V37.5044ZM33.8214 39.1711L29.1667 43.8261V39.1711H33.8214ZM12.5 5.83799H15.8332C16.2937 5.83799 16.6667 5.46491 16.6667 5.00448C16.6667 3.16352 18.159 1.67121 20 1.67121C21.841 1.67121 23.3333 3.16352 23.3333 5.00448C23.3333 5.46491 23.7063 5.83799 24.1664 5.83799H27.5C27.9601 5.83799 28.3332 6.21107 28.3332 6.67112V10.0044C28.3332 10.4648 27.9601 10.8379 27.5 10.8379H12.5C12.0395 10.8379 11.6664 10.4648 11.6664 10.0044V6.67112C11.6664 6.21107 12.0395 5.83799 12.5 5.83799ZM1.66663 10.0044C1.66663 8.16342 3.15894 6.67112 4.9999 6.67112H9.99981V8.33775H5.83341C4.4525 8.33775 3.33327 9.45698 3.33327 10.8379V44.171C3.33327 45.5519 4.4525 46.6711 5.83341 46.6711H27.6431C27.9876 46.67 28.3282 46.5975 28.6433 46.4579C28.6589 46.4518 28.6715 46.4419 28.6864 46.4354C28.955 46.3125 29.1995 46.1432 29.4089 45.9353L35.9324 39.4118C36.138 39.2031 36.3051 38.9601 36.4264 38.6935C36.4348 38.6759 36.4459 38.6618 36.4523 38.6443C36.5916 38.3295 36.6641 37.9889 36.6648 37.6444V10.8379C36.6648 9.45698 35.5456 8.33775 34.1647 8.33775H29.9998V6.67112H34.9997C36.8407 6.67112 38.333 8.16342 38.333 10.0044V45.0045C38.333 46.8454 36.8407 48.3377 34.9997 48.3377H4.9999C3.15894 48.3377 1.66663 46.8454 1.66663 45.0045V10.0044Z" fill="#C4C4C4"/>
<path d="M15.8332 9.17127H24.1664C24.6269 9.17127 24.9999 8.7982 24.9999 8.33777C24.9999 7.87771 24.6269 7.50464 24.1664 7.50464H15.8332C15.3732 7.50464 15.0001 7.87771 15.0001 8.33777C15.0001 8.7982 15.3732 9.17127 15.8332 9.17127Z" fill="#C4C4C4"/>
<path d="M14.1666 21.6713C13.7065 21.6713 13.333 22.0444 13.333 22.5044V23.3379H8.33314V18.338H10.8333C11.2933 18.338 11.6664 17.9649 11.6664 17.5045C11.6664 17.0445 11.2933 16.6714 10.8333 16.6714H8.33314C7.41266 16.6714 6.6665 17.4175 6.6665 18.338V23.3379C6.6665 24.2584 7.41266 25.0046 8.33314 25.0046H13.333C14.2535 25.0046 15.0001 24.2584 15.0001 23.3379V22.5044C15.0001 22.0444 14.627 21.6713 14.1666 21.6713Z" fill="#C4C4C4"/>
<path d="M13.333 28.3378H8.33314C7.41266 28.3378 6.6665 29.0839 6.6665 30.0044V35.0043C6.6665 35.9248 7.41266 36.6709 8.33314 36.6709H13.333C14.2535 36.6709 15.0001 35.9248 15.0001 35.0043V30.0044C15.0001 29.0839 14.2535 28.3378 13.333 28.3378ZM8.33314 35.0043V30.0044H13.333V35.0043H8.33314Z" fill="#C4C4C4"/>
<path d="M17.4999 20.0045H21.6667C22.1267 20.0045 22.4998 19.6314 22.4998 19.171C22.4998 18.711 22.1267 18.3379 21.6667 18.3379H17.4999C17.0398 18.3379 16.6667 18.711 16.6667 19.171C16.6667 19.6314 17.0398 20.0045 17.4999 20.0045Z" fill="#C4C4C4"/>
<path d="M32.4999 18.3379H24.9999C24.5395 18.3379 24.1664 18.711 24.1664 19.171C24.1664 19.6314 24.5395 20.0045 24.9999 20.0045H32.4999C32.96 20.0045 33.3331 19.6314 33.3331 19.171C33.3331 18.711 32.96 18.3379 32.4999 18.3379Z" fill="#C4C4C4"/>
<path d="M17.4999 23.3379H25.833C26.2935 23.3379 26.6666 22.9648 26.6666 22.5044C26.6666 22.0443 26.2935 21.6713 25.833 21.6713H17.4999C17.0398 21.6713 16.6667 22.0443 16.6667 22.5044C16.6667 22.9648 17.0398 23.3379 17.4999 23.3379Z" fill="#C4C4C4"/>
<path d="M32.5 21.6713H29.1668C28.7063 21.6713 28.3333 22.0443 28.3333 22.5044C28.3333 22.9648 28.7063 23.3379 29.1668 23.3379H32.5C32.9601 23.3379 33.3332 22.9648 33.3332 22.5044C33.3332 22.0443 32.9601 21.6713 32.5 21.6713Z" fill="#C4C4C4"/>
<path d="M17.4999 31.671H21.6667C22.1267 31.671 22.4998 31.298 22.4998 30.8379C22.4998 30.3775 22.1267 30.0044 21.6667 30.0044H17.4999C17.0398 30.0044 16.6667 30.3775 16.6667 30.8379C16.6667 31.298 17.0398 31.671 17.4999 31.671Z" fill="#C4C4C4"/>
<path d="M32.4999 30.0044H24.9999C24.5395 30.0044 24.1664 30.3775 24.1664 30.8379C24.1664 31.298 24.5395 31.671 24.9999 31.671H32.4999C32.96 31.671 33.3331 31.298 33.3331 30.8379C33.3331 30.3775 32.96 30.0044 32.4999 30.0044Z" fill="#C4C4C4"/>
<path d="M25.833 33.3376H17.4999C17.0398 33.3376 16.6667 33.7107 16.6667 34.1712C16.6667 34.6312 17.0398 35.0043 17.4999 35.0043H25.833C26.2935 35.0043 26.6666 34.6312 26.6666 34.1712C26.6666 33.7107 26.2935 33.3376 25.833 33.3376Z" fill="#C4C4C4"/>
<path d="M32.5 33.3376H29.1668C28.7063 33.3376 28.3333 33.7107 28.3333 34.1712C28.3333 34.6312 28.7063 35.0043 29.1668 35.0043H32.5C32.9601 35.0043 33.3332 34.6312 33.3332 34.1712C33.3332 33.7107 32.9601 33.3376 32.5 33.3376Z" fill="#C4C4C4"/>
<path d="M15.1557 15.3537L11.56 20.3861L10.5892 19.4152C10.2622 19.0994 9.7423 19.1039 9.4211 19.4255C9.09952 19.7471 9.09494 20.2667 9.4108 20.5936L11.0774 22.2602C11.2338 22.4166 11.4456 22.5044 11.6664 22.5044H11.7351C11.9792 22.4841 12.202 22.3571 12.3439 22.158L16.5107 16.3246C16.6976 16.0831 16.7377 15.7589 16.6148 15.4792C16.492 15.1996 16.2261 15.0097 15.9217 14.9841C15.6177 14.9582 15.3236 15.1012 15.1557 15.356V15.3537Z" fill="#C4C4C4"/>
</svg>
