<svg width="40" height="40" viewBox="0 0 40 40" fill="none" xmlns="http://www.w3.org/2000/svg">
<path d="M13.846 18.4616H8.46136C7.82029 18.4616 7.27529 18.2373 6.82653 17.7886C6.37801 17.3398 6.15346 16.795 6.15346 16.1537V15.3848C6.15346 13.686 6.75454 12.2358 7.9566 11.0338C9.15859 9.83212 10.609 9.23104 12.3077 9.23104H13.846C14.2626 9.23104 14.6231 9.07873 14.9277 8.77436C15.2321 8.46983 15.3844 8.10938 15.3844 7.6927V4.6155C15.3844 4.1989 15.2321 3.83812 14.9277 3.53358C14.6232 3.22947 14.2627 3.0769 13.846 3.0769H12.3077C10.6409 3.0769 9.05065 3.40173 7.53605 4.05046C6.02161 4.69961 4.71169 5.5771 3.60578 6.68302C2.49995 7.78843 1.62271 9.09843 0.973642 10.613C0.324576 12.1275 0 13.7181 0 15.3848V32.3074C0 33.5901 0.448512 34.6793 1.34596 35.5771C2.24349 36.4743 3.33349 36.9229 4.61546 36.9229H13.8466C15.1285 36.9229 16.2182 36.4743 17.1158 35.5771C18.0131 34.6793 18.4618 33.5901 18.4618 32.3074V23.0771C18.4618 21.7946 18.0131 20.7054 17.1152 19.8076C16.218 18.9104 15.1279 18.4616 13.846 18.4616Z" fill="#727272"/>
<path d="M38.6546 19.8076C37.7574 18.9104 36.6676 18.4616 35.3854 18.4616H30.0008C29.3601 18.4616 28.8146 18.2373 28.3666 17.7886C27.9176 17.3398 27.6935 16.795 27.6935 16.1537V15.3848C27.6935 13.686 28.2946 12.2358 29.4961 11.0338C30.6976 9.83212 32.148 9.23104 33.8475 9.23104H35.3855C35.8022 9.23104 36.1629 9.07873 36.4672 8.77436C36.7714 8.46983 36.9243 8.10938 36.9243 7.6927V4.6155C36.9243 4.1989 36.7715 3.83812 36.4672 3.53358C36.163 3.22947 35.8023 3.0769 35.3855 3.0769H33.8475C32.1797 3.0769 30.5899 3.40173 29.0748 4.05046C27.5606 4.69961 26.2511 5.5771 25.1452 6.68302C24.0393 7.78843 23.1617 9.09843 22.5128 10.613C21.8639 12.1275 21.5389 13.7181 21.5389 15.3848V32.3074C21.5389 33.5901 21.9879 34.6793 22.8851 35.5771C23.7823 36.4743 24.8721 36.9229 26.1542 36.9229H35.3849C36.6671 36.9229 37.7568 36.4743 38.654 35.5771C39.5519 34.6793 39.9999 33.5901 39.9999 32.3074V23.0771C39.9999 21.7945 39.5519 20.7054 38.6546 19.8076Z" fill="#727272"/>
</svg>
